<svg width="28" height="24" viewBox="0 0 28 24" fill="none" xmlns="http://www.w3.org/2000/svg">
<path d="M0 7.86207C0 8.54774 0.537188 9.10345 1.2 9.10345H26.8C27.4628 9.10345 28 8.54774 28 7.86207C28 3.52694 24.5906 0 20.4 0H7.6C3.40937 0 0 3.52694 0 7.86207Z" fill="#FFA800"/>
<path d="M4 11.5862C2.67438 11.5862 1.6 12.6976 1.6 14.069C1.6 15.4403 2.67438 16.5517 4 16.5517H24C25.3256 16.5517 26.4 15.4403 26.4 14.069C26.4 12.6976 25.3256 11.5862 24 11.5862H4Z" fill="#FFA800"/>
<path d="M26.8 19.0345H1.2C0.537188 19.0345 0 19.5902 0 20.2759C0 22.3293 1.615 24 3.6 24H24.4C26.385 24 28 22.3293 28 20.2759C28 19.5902 27.4628 19.0345 26.8 19.0345Z" fill="#FFA800"/>
</svg>
