<svg width="26" height="29" viewBox="0 0 26 29" fill="none" xmlns="http://www.w3.org/2000/svg">
<path d="M13 23.959C15.092 23.959 16.788 22.2853 16.788 20.2207C16.788 18.1561 15.092 16.4824 13 16.4824C10.9079 16.4824 9.21191 18.1561 9.21191 20.2207C9.21191 22.2853 10.9079 23.959 13 23.959Z" fill="#FFA800"/>
<path d="M2.382 11.5546L4.49494 27.2782C4.62683 28.2598 5.48294 29 6.48632 29H19.5135C20.5169 29 21.373 28.2598 21.5049 27.2782L23.6179 11.5546H2.382ZM13 14.7831C16.0382 14.7831 18.5099 17.2224 18.5099 20.2207C18.5099 23.2189 16.0382 25.6582 13 25.6582C9.96176 25.6582 7.49004 23.2189 7.49004 20.2207C7.49004 17.2224 9.96181 14.7831 13 14.7831Z" fill="#FFA800"/>
<path d="M23.3885 4.24796V3.61721C23.3885 2.59003 22.6071 1.74166 21.5711 1.64384L4.24051 0.00640883C3.83897 -0.0315406 3.43726 0.100319 3.13869 0.368118C2.84012 0.635916 2.66886 1.01785 2.66886 1.41597V4.24796H23.3885Z" fill="#FFA800"/>
<path d="M25.426 5.94717H0.57395C0.256957 5.94717 0 6.20075 0 6.51358V9.28898C0 9.60181 0.256957 9.85539 0.57395 9.85539H25.4261C25.743 9.85539 26 9.60181 26 9.28898V6.51358C25.9999 6.20081 25.743 5.94717 25.426 5.94717Z" fill="#FFA800"/>
</svg>
