<svg width="24" height="29" viewBox="0 0 24 29" fill="none" xmlns="http://www.w3.org/2000/svg">
<path d="M12 0C5.37266 0 0 5.27074 0 11.7724C0 17.6704 7.47662 25.4304 10.6273 28.4389C11.3991 29.1742 12.6192 29.1895 13.4059 28.4689C16.5755 25.5704 24 18.1033 24 11.7717C23.9993 5.27074 18.6273 0 12 0ZM12 15.5974C9.2599 15.5974 7.03992 13.4195 7.03992 10.732C7.03992 8.04455 9.2599 5.86604 12 5.86604C14.7394 5.86604 16.9588 8.04391 16.9588 10.732C16.9588 13.4202 14.7394 15.5974 12 15.5974Z" fill="#FFA800"/>
</svg>
