<svg width="1301" height="4" viewBox="0 0 1301 4" fill="none" xmlns="http://www.w3.org/2000/svg">
<path d="M4 2C4 3.10457 3.10457 4 2 4C0.89543 4 0 3.10457 0 2C0 0.89543 0.89543 0 2 0C3.10457 0 4 0.89543 4 2Z" fill="#535353"/>
<path d="M85 2C85 3.10457 84.1046 4 83 4C81.8954 4 81 3.10457 81 2C81 0.89543 81.8954 0 83 0C84.1046 0 85 0.89543 85 2Z" fill="#535353"/>
<path d="M166 2C166 3.10457 165.105 4 164 4C162.895 4 162 3.10457 162 2C162 0.89543 162.895 0 164 0C165.105 0 166 0.89543 166 2Z" fill="#535353"/>
<path d="M247 2C247 3.10457 246.105 4 245 4C243.895 4 243 3.10457 243 2C243 0.89543 243.895 0 245 0C246.105 0 247 0.89543 247 2Z" fill="#535353"/>
<path d="M328 2C328 3.10457 327.105 4 326 4C324.895 4 324 3.10457 324 2C324 0.89543 324.895 0 326 0C327.105 0 328 0.89543 328 2Z" fill="#535353"/>
<path d="M409 2C409 3.10457 408.105 4 407 4C405.895 4 405 3.10457 405 2C405 0.89543 405.895 0 407 0C408.105 0 409 0.89543 409 2Z" fill="#535353"/>
<path d="M490 2C490 3.10457 489.105 4 488 4C486.895 4 486 3.10457 486 2C486 0.89543 486.895 0 488 0C489.105 0 490 0.89543 490 2Z" fill="#535353"/>
<path d="M571 2C571 3.10457 570.105 4 569 4C567.895 4 567 3.10457 567 2C567 0.89543 567.895 0 569 0C570.105 0 571 0.89543 571 2Z" fill="#535353"/>
<path d="M652 2C652 3.10457 651.105 4 650 4C648.895 4 648 3.10457 648 2C648 0.89543 648.895 0 650 0C651.105 0 652 0.89543 652 2Z" fill="#535353"/>
<path d="M733 2C733 3.10457 732.105 4 731 4C729.895 4 729 3.10457 729 2C729 0.89543 729.895 0 731 0C732.105 0 733 0.89543 733 2Z" fill="#535353"/>
<path d="M814 2C814 3.10457 813.105 4 812 4C810.895 4 810 3.10457 810 2C810 0.89543 810.895 0 812 0C813.105 0 814 0.89543 814 2Z" fill="#535353"/>
<path d="M895 2C895 3.10457 894.105 4 893 4C891.895 4 891 3.10457 891 2C891 0.89543 891.895 0 893 0C894.105 0 895 0.89543 895 2Z" fill="#535353"/>
<path d="M977 2C977 3.10457 976.105 4 975 4C973.895 4 973 3.10457 973 2C973 0.89543 973.895 0 975 0C976.105 0 977 0.89543 977 2Z" fill="#535353"/>
<path d="M1058 2C1058 3.10457 1057.1 4 1056 4C1054.9 4 1054 3.10457 1054 2C1054 0.89543 1054.9 0 1056 0C1057.1 0 1058 0.89543 1058 2Z" fill="#535353"/>
<path d="M1139 2C1139 3.10457 1138.1 4 1137 4C1135.9 4 1135 3.10457 1135 2C1135 0.89543 1135.9 0 1137 0C1138.1 0 1139 0.89543 1139 2Z" fill="#535353"/>
<path d="M1220 2C1220 3.10457 1219.1 4 1218 4C1216.9 4 1216 3.10457 1216 2C1216 0.89543 1216.9 0 1218 0C1219.1 0 1220 0.89543 1220 2Z" fill="#535353"/>
<path d="M1301 2C1301 3.10457 1300.1 4 1299 4C1297.9 4 1297 3.10457 1297 2C1297 0.89543 1297.9 0 1299 0C1300.1 0 1301 0.89543 1301 2Z" fill="#535353"/>
</svg>
