<svg width="1219" height="4" viewBox="0 0 1219 4" fill="none" xmlns="http://www.w3.org/2000/svg">
<path d="M4 2C4 3.10457 3.10457 4 2 4C0.89543 4 0 3.10457 0 2C0 0.89543 0.89543 0 2 0C3.10457 0 4 0.89543 4 2Z" fill="#535353"/>
<path d="M85 2C85 3.10457 84.1046 4 83 4C81.8954 4 81 3.10457 81 2C81 0.89543 81.8954 0 83 0C84.1046 0 85 0.89543 85 2Z" fill="#535353"/>
<path d="M166 2C166 3.10457 165.105 4 164 4C162.895 4 162 3.10457 162 2C162 0.89543 162.895 0 164 0C165.105 0 166 0.89543 166 2Z" fill="#535353"/>
<path d="M247 2C247 3.10457 246.105 4 245 4C243.895 4 243 3.10457 243 2C243 0.89543 243.895 0 245 0C246.105 0 247 0.89543 247 2Z" fill="#535353"/>
<path d="M328 2C328 3.10457 327.105 4 326 4C324.895 4 324 3.10457 324 2C324 0.89543 324.895 0 326 0C327.105 0 328 0.89543 328 2Z" fill="#535353"/>
<path d="M409 2C409 3.10457 408.105 4 407 4C405.895 4 405 3.10457 405 2C405 0.89543 405.895 0 407 0C408.105 0 409 0.89543 409 2Z" fill="#535353"/>
<path d="M490 2C490 3.10457 489.105 4 488 4C486.895 4 486 3.10457 486 2C486 0.89543 486.895 0 488 0C489.105 0 490 0.89543 490 2Z" fill="#535353"/>
<path d="M733 2C733 3.10457 732.105 4 731 4C729.895 4 729 3.10457 729 2C729 0.89543 729.895 0 731 0C732.105 0 733 0.89543 733 2Z" fill="#535353"/>
<path d="M814 2C814 3.10457 813.105 4 812 4C810.895 4 810 3.10457 810 2C810 0.89543 810.895 0 812 0C813.105 0 814 0.89543 814 2Z" fill="#535353"/>
<path d="M895 2C895 3.10457 894.105 4 893 4C891.895 4 891 3.10457 891 2C891 0.89543 891.895 0 893 0C894.105 0 895 0.89543 895 2Z" fill="#535353"/>
<path d="M976 2C976 3.10457 975.105 4 974 4C972.895 4 972 3.10457 972 2C972 0.89543 972.895 0 974 0C975.105 0 976 0.89543 976 2Z" fill="#535353"/>
<path d="M1057 2C1057 3.10457 1056.1 4 1055 4C1053.9 4 1053 3.10457 1053 2C1053 0.89543 1053.9 0 1055 0C1056.1 0 1057 0.89543 1057 2Z" fill="#535353"/>
<path d="M1138 2C1138 3.10457 1137.1 4 1136 4C1134.9 4 1134 3.10457 1134 2C1134 0.89543 1134.9 0 1136 0C1137.1 0 1138 0.89543 1138 2Z" fill="#535353"/>
<path d="M1219 2C1219 3.10457 1218.1 4 1217 4C1215.9 4 1215 3.10457 1215 2C1215 0.89543 1215.9 0 1217 0C1218.1 0 1219 0.89543 1219 2Z" fill="#535353"/>
</svg>
