<svg width="26" height="24" viewBox="0 0 26 24" fill="none" xmlns="http://www.w3.org/2000/svg">
<path d="M22.75 4.36364V3.27273C22.75 1.46777 21.2924 0 19.5 0H3.25C1.45758 0 0 1.46777 0 3.27273V20.7273C0 22.5322 1.45758 24 3.25 24H22.75C24.5424 24 26 22.5322 26 20.7273V7.63636C26 5.83141 24.5424 4.36364 22.75 4.36364ZM3.25 2.18182H19.5C20.0975 2.18182 20.5833 2.67108 20.5833 3.27273V4.36364H3.25C2.65253 4.36364 2.16667 3.87438 2.16667 3.27273C2.16667 2.67108 2.65253 2.18182 3.25 2.18182ZM22.75 21.8182H3.25C2.65253 21.8182 2.16667 21.3289 2.16667 20.7273V6.35849C2.50574 6.4794 2.8702 6.54545 3.25 6.54545H22.75C23.3475 6.54545 23.8333 7.03471 23.8333 7.63636V10.3636H17.875C15.7842 10.3636 14.0833 12.077 14.0833 14.1818C14.0833 16.2867 15.7842 18 17.875 18H23.8333V20.7273C23.8333 21.3289 23.3475 21.8182 22.75 21.8182ZM23.8333 15.8182H21.2982C21.5365 15.3113 21.6667 14.7568 21.6667 14.1818C21.6667 13.5959 21.5307 13.0424 21.2956 12.5455H23.8333V15.8182ZM16.25 14.1818C16.25 13.2797 16.9792 12.5455 17.875 12.5455C18.7708 12.5455 19.5 13.2797 19.5 14.1818C19.5 14.6186 19.3305 15.0322 19.0303 15.3372C18.7195 15.6475 18.3088 15.8182 17.875 15.8182C16.9792 15.8182 16.25 15.0839 16.25 14.1818Z" fill="#5A5A5A"/>
</svg>
