<svg width="22" height="24" viewBox="0 0 22 24" fill="none" xmlns="http://www.w3.org/2000/svg">
<path d="M20.0889 2.37469C19.7165 1.01953 18.5323 0.0219727 17.126 0.00109863V0H3.1748C1.44889 0 0.0447154 1.47198 0.0447154 3.28125C0.0447154 4.44891 0.644182 5.53784 1.60906 6.12286C1.73098 6.19684 1.85744 6.26166 1.98722 6.31732C1.77849 7.33173 1.47858 8.28516 1.16505 9.28088C0.592305 11.0999 0 12.9807 0 15.2812V21.1875C0 22.7384 1.20347 24 2.68293 24H17.7688L21.0591 21.0557C21.6569 20.5204 22 19.7408 22 18.9166V12.0938C22 7.61847 20.4732 3.37225 20.0889 2.37469ZM14.2539 1.875C14.06 2.30145 13.9512 2.77826 13.9512 3.28125C13.9512 3.77472 14.0583 4.25427 14.2548 4.6875H11.0447V3.28125C11.0447 2.5058 11.6465 1.875 12.3862 1.875H14.2539ZM9.5588 1.875C9.36492 2.30145 9.2561 2.77826 9.2561 3.28125V8.4375H7.46748V3.28125C7.46748 2.5058 8.06922 1.875 8.80894 1.875H9.5588ZM3.1748 1.875H5.98156C5.78768 2.30145 5.67886 2.77826 5.67886 3.28125V4.6875H3.1748C2.93882 4.6875 2.70703 4.62268 2.50476 4.49982C2.09062 4.24878 1.83333 3.78186 1.83333 3.28125C1.83333 2.5058 2.43507 1.875 3.1748 1.875ZM1.78862 21.1875V15.2812C1.78862 13.2821 2.31071 11.6241 2.86354 9.86865C3.19419 8.81873 3.53374 7.73969 3.76588 6.5625H5.67886V10.3125H11.0447V6.5625H17.0813V4.6875C16.8453 4.6875 16.6135 4.62268 16.4113 4.49982C15.9971 4.24878 15.7398 3.78186 15.7398 3.28125C15.7398 2.5058 16.3416 1.875 17.0813 1.875C17.6939 1.875 18.2116 2.30786 18.3714 2.89709L18.3613 2.90149C18.3627 2.9046 18.3728 2.92987 18.3901 2.974C18.4112 3.07306 18.4228 3.17578 18.4228 3.28125V4.21875C18.4228 5.66309 18.0333 7.27753 17.6207 8.98682C17.1358 10.9971 16.6341 13.0757 16.6341 15.2812V22.125H2.68293C2.18983 22.125 1.78862 21.7044 1.78862 21.1875ZM20.2114 18.9166C20.2114 19.1913 20.097 19.4513 19.8977 19.6296L18.4228 20.9496V15.2812C18.4228 13.3092 18.8966 11.3456 19.3548 9.44659C19.4938 8.87018 19.6304 8.30402 19.7522 7.74628C20.0159 9.0824 20.2114 10.5822 20.2114 12.0938V18.9166Z" fill="#5A5A5A"/>
</svg>
