<svg width="29" height="23" viewBox="0 0 29 23" fill="none" xmlns="http://www.w3.org/2000/svg">
<path d="M26.4105 23C27.0624 23 27.6272 22.7827 28.1074 22.3537L19.8912 14.06C19.6941 14.2025 19.503 14.3411 19.3226 14.4728C18.7077 14.9301 18.2087 15.2869 17.8255 15.5426C17.4423 15.7989 16.9326 16.0601 16.2962 16.3268C15.6595 16.5938 15.0662 16.7268 14.5159 16.7268H14.4837C13.9333 16.7268 13.3401 16.5938 12.7034 16.3268C12.0667 16.0601 11.5569 15.7989 11.1742 15.5426C10.791 15.2869 10.2923 14.9301 9.67707 14.4728C9.50564 14.3459 9.31552 14.2068 9.10997 14.0578L0.892227 22.3537C1.37235 22.7827 1.93756 23 2.58938 23H26.4105Z" fill="#FFA800"/>
<path d="M1.63466 8.83746C1.01985 8.42372 0.47465 7.94986 0 7.41612V20.0343L7.24169 12.7246C5.79294 11.7036 3.9263 10.4094 1.63466 8.83746Z" fill="#FFA800"/>
<path d="M27.3817 8.83746C25.1775 10.3434 23.304 11.6399 21.7612 12.7275L29 20.0347V7.41612C28.5359 7.93913 27.9965 8.41266 27.3817 8.83746Z" fill="#FFA800"/>
<path d="M26.4105 0H2.58944C1.75839 0 1.11947 0.283269 0.671882 0.849222C0.223925 1.41544 0.000315907 2.12356 0.000315907 2.97278C0.000315907 3.65874 0.297058 4.40199 0.890279 5.20274C1.4835 6.00318 2.11473 6.63189 2.78367 7.08922C3.15038 7.35075 4.25627 8.12679 6.10132 9.41707C7.09733 10.1138 7.96349 10.721 8.70782 11.245C9.34227 11.6912 9.88942 12.0777 10.3412 12.3984C10.393 12.4351 10.4746 12.494 10.5828 12.5721C10.6995 12.6566 10.847 12.7639 11.0291 12.8967C11.3797 13.1526 11.671 13.3595 11.903 13.5176C12.1346 13.6757 12.4153 13.8523 12.7446 14.0484C13.0736 14.2442 13.3839 14.3915 13.6752 14.4894C13.9665 14.5873 14.2362 14.6364 14.4843 14.6364H14.5165C14.7645 14.6364 15.0343 14.5873 15.3257 14.4894C15.6169 14.3915 15.9269 14.2445 16.2562 14.0484C16.5852 13.8523 16.8655 13.6753 17.0979 13.5176C17.3299 13.3595 17.6211 13.1527 17.9718 12.8967C18.1535 12.7639 18.3011 12.6566 18.4177 12.5724C18.526 12.4939 18.6075 12.4354 18.6597 12.3984C19.0116 12.1512 19.56 11.7663 20.2973 11.2495C21.639 10.3086 23.6149 8.92366 26.2333 7.08922C27.0208 6.534 27.6788 5.86399 28.2076 5.08013C28.7354 4.29628 29 3.47406 29 2.61373C29 1.89493 28.7434 1.27987 28.2314 0.76759C27.7188 0.255952 27.1118 0 26.4105 0Z" fill="#FFA800"/>
</svg>
