<svg width="199" height="54" viewBox="0 0 199 54" fill="none" xmlns="http://www.w3.org/2000/svg">
<g opacity="0.9">
<path d="M14.2994 4.98913C16.9805 10.5652 19.6617 16.1413 22.3428 21.7174L24.4281 26.413L34.259 5.57609C34.8548 4.1087 35.7485 2.34783 36.6422 0.880435C36.9401 0.293478 38.1317 0 39.3234 0C40.515 0 42.3024 0 43.494 0C43.7919 0 44.6856 0 44.6856 0H45.2814C46.1752 0 46.771 0 50.3458 4.98913V53.413H41.1108C40.8129 53.413 40.8129 53.413 40.515 53.413C39.9192 53.413 39.3234 53.1196 35.7485 49.0109V37.2717L31.8758 45.4891C31.2799 46.3696 30.3862 46.663 29.1946 46.663C28.8967 46.663 28.003 46.663 27.7051 46.663C27.4072 46.663 26.8114 46.663 26.8114 46.663H23.2365C22.3428 45.7826 21.747 44.3152 19.6617 43.1413C19.3638 43.1413 18.768 42.2609 18.4701 41.6739C16.9805 38.7391 15.7889 36.0978 14.5973 33.75V52.2391C14.5973 52.8261 14.2994 53.413 13.7036 53.413H9.53293C9.23503 53.413 9.23503 53.413 8.63922 53.413C8.04341 53.413 7.1497 53.413 6.25599 53.413C4.76647 53.413 3.57485 53.413 0 48.7174V1.76087C0 0.586957 1.19162 0.293478 2.38323 0.293478C2.97904 0.293478 3.57485 0.293478 4.17066 0.293478C4.46856 0.293478 5.06437 0.293478 5.36228 0.293478C5.66018 0.293478 6.25599 0.293478 6.8518 0.293478C7.1497 0.293478 7.74551 0.293478 8.34132 0.293478C9.53293 0.293478 10.4266 0.586957 11.0225 1.76087C12.8099 3.81522 13.7036 4.1087 14.2994 4.98913ZM23.8323 30.2283C19.3638 20.837 14.8952 11.4457 10.4266 2.05435C9.83084 1.17391 9.23503 0.880435 8.34132 0.880435C7.44761 0.880435 6.25599 1.17391 5.36228 1.17391C4.76647 1.17391 3.57485 0.880435 2.68114 0.880435C1.78743 0.880435 1.19162 0.880435 1.19162 1.76087V49.3043C1.19162 49.8913 2.08533 49.8913 3.27695 49.8913C4.46856 49.8913 5.95808 49.8913 6.25599 49.8913H10.4266C10.7246 49.8913 10.7246 49.8913 10.7246 49.5978C10.7246 49.3043 10.7246 49.3044 10.7246 49.0109V23.4783L19.3638 41.9674L19.6617 42.8478H23.2365C23.8323 42.8478 24.726 42.8478 25.6198 42.8478C26.5135 42.8478 27.1093 42.8478 27.4072 41.9674L36.3443 23.1848V49.0109C36.3443 49.3044 36.6422 49.3043 36.9401 49.3043C37.238 49.3043 37.8338 49.3043 37.8338 49.3043C38.4296 49.3043 45.8773 49.3043 45.8773 49.3043V2.05435C45.8773 1.17391 45.5793 1.17391 44.9835 1.17391H44.3877C43.7919 1.17391 41.1108 0.880435 39.0255 0.880435C37.8338 0.880435 36.9401 0.880435 36.9401 1.17391C36.0464 2.6413 35.4506 4.40217 34.5569 5.86957L23.8323 30.2283Z" fill="#727272"/>
<path d="M61.0704 54L57.4955 50.4783V3.52174C57.4955 3.22826 57.4955 0.293478 58.3892 0.293478H92.3503C93.244 0.293478 95.0314 2.34783 96.8189 4.1087C96.8189 4.98913 96.8189 5.57609 96.8189 7.33696C96.8189 8.21739 96.8189 9.09783 96.8189 9.97826V10.5652C96.8189 10.8587 96.8189 13.7935 95.9251 13.7935H72.3907C72.0928 13.7935 71.7949 13.7935 71.7949 14.6739V20.5435H83.7111C84.009 20.5435 84.009 20.5435 84.6048 20.5435C85.2006 20.5435 86.0943 20.5435 86.6901 20.5435C88.1796 20.5435 88.4776 20.837 89.9671 20.837L92.9461 25.2391V29.9348C92.9461 29.9348 92.9461 30.2283 92.9461 30.5217C92.9461 30.8152 92.9461 31.6957 92.9461 31.9891C92.9461 32.5761 92.9461 32.8696 92.6482 33.163C92.3503 33.4565 91.7545 33.4565 91.4566 33.4565C91.1587 33.4565 90.8608 33.4565 90.265 33.4565H71.497C71.497 33.75 71.497 33.75 71.497 34.0435V40.5H90.5629C90.8608 40.5 92.9461 40.5 92.9461 41.3804L96.521 44.9022V48.4239C96.521 48.7174 96.521 49.0109 96.521 49.3043C96.521 49.8913 96.521 50.7717 96.521 51.3587C96.521 52.8261 96.2231 54 95.0314 54H61.0704ZM92.0524 49.5978C92.6482 49.5978 92.6482 48.7174 92.6482 47.5435C92.6482 46.3696 92.6482 45.1957 92.6482 44.6087V41.087H68.2201C67.9222 41.087 67.9222 40.7935 67.9222 40.5C67.9222 40.2065 67.9222 39.913 67.9222 39.6196V30.2283C67.9222 30.2283 67.9222 29.6413 67.9222 29.3478C67.9222 29.0543 67.9222 28.7609 68.2201 28.7609H86.6901C86.988 28.7609 87.8817 28.7609 88.1796 28.7609C88.4775 28.7609 88.7755 28.7609 88.7755 28.7609C88.7755 28.7609 88.7755 28.4674 88.7755 27.8804C88.7755 27 88.7755 26.1196 88.7755 25.8261V21.7174C88.7755 21.1304 87.8817 21.1304 86.6901 21.1304C85.4985 21.1304 84.009 21.1304 83.7111 21.1304H72.3907C71.7949 21.1304 70.6033 21.1304 69.7096 21.1304C68.8159 21.1304 67.9222 21.1304 67.9222 20.5435V10.8587C67.9222 9.3913 68.518 9.3913 69.4117 9.3913H92.6482C92.6482 9.3913 92.6482 7.04348 92.6482 6.75C92.6482 6.45652 92.6482 4.98913 92.6482 3.52174C92.6482 2.05435 92.6482 0.880435 92.3503 0.880435H58.3892V49.5978H92.0524Z" fill="#727272"/>
<path d="M117.672 4.1087L134.355 28.4674V2.93478C134.355 2.6413 134.355 2.34783 134.355 2.05435V1.76087C134.355 0.586957 134.653 0.293478 136.738 0.293478C137.036 0.293478 139.121 0.293478 140.909 0.293478C142.994 0.293478 145.377 0.293478 145.377 0.880435C147.165 2.6413 148.952 4.40217 148.952 4.69565V52.5326C148.952 53.7065 148.654 54 146.867 54C146.569 54 146.271 54 145.675 54C144.484 54 142.994 54 141.802 54C140.313 54 139.121 54 138.823 53.413C136.142 50.4783 135.546 50.1848 135.249 49.8913L118.566 25.8261V51.0652C118.566 51.3587 118.566 51.6522 118.566 51.9457V52.2391C118.566 53.413 118.268 53.7065 116.183 53.7065C115.587 53.7065 107.543 53.7065 107.543 52.8261C105.16 51.0652 103.969 50.4783 103.969 49.3043V1.46739C103.969 0.293478 104.266 0.293478 106.054 0.293478C106.352 0.293478 106.65 0.293478 107.246 0.293478C108.437 0.293478 109.927 0.293478 111.118 0.293478C112.608 0.293478 113.799 0.586957 114.097 1.17391C117.076 3.81522 117.672 4.1087 117.672 4.1087ZM134.951 32.2826C128.695 23.1848 122.439 14.087 116.481 4.98913L113.501 1.17391C113.501 0.880435 112.31 0.880435 111.118 0.880435C109.331 0.880435 106.65 1.17391 106.054 1.17391C104.862 1.17391 104.564 1.17391 104.564 1.76087V49.5978C104.564 49.5978 112.012 49.5978 112.608 49.5978C114.097 49.5978 114.395 49.5978 114.395 48.7174C114.395 48.4239 114.395 48.1304 114.395 47.5435V18.1957L135.844 49.3043C136.142 49.5978 137.036 49.5978 138.228 49.5978C140.015 49.5978 142.696 49.3043 143.292 49.3043C144.484 49.3043 144.781 49.3044 144.781 48.7174V1.17391C144.781 1.17391 137.334 1.17391 136.738 1.17391C135.249 1.17391 135.249 1.17391 135.249 2.05435C135.249 2.34783 135.249 2.6413 135.249 3.22826V32.2826H134.951Z" fill="#727272"/>
<path d="M184.403 0.880435C184.403 0 187.68 0 190.957 0H195.425L199 3.52174V34.9239C199 43.7283 193.34 51.6522 183.211 53.413C182.019 53.7065 180.53 53.7065 179.338 53.7065C172.487 53.7065 166.826 50.7717 163.251 46.0761C159.081 42.8478 156.102 37.8587 156.102 32.2826C156.102 28.7609 156.102 25.5326 156.102 22.0109V12.0326C156.102 8.51087 156.102 5.28261 156.102 1.76087V0H161.166C161.762 0 162.656 0 163.549 0C165.337 0 167.124 0 167.124 1.17391C168.912 3.52174 170.699 3.52174 170.699 4.69565V35.2174C170.699 36.6848 170.997 37.8587 171.593 39.3261C172.487 39.913 173.678 40.2065 175.168 40.2065H175.763C181.126 40.2065 184.403 36.3913 184.403 31.9891V0.880435ZM184.999 31.9891C184.999 36.9783 181.424 40.7935 175.763 40.7935H175.168C169.507 40.5 166.528 36.3913 166.528 31.6957V1.17391C166.528 0.880435 165.039 0.586957 163.847 0.586957C162.358 0.586957 161.166 0.586957 160.57 0.586957H156.996C156.996 0.586957 156.996 1.46739 156.996 1.76087C156.996 8.51087 156.996 15.5543 156.996 22.3043C156.996 25.8261 156.996 29.0543 156.996 32.5761C157.293 42.2609 165.635 49.5978 176.061 49.5978C177.253 49.5978 178.445 49.5978 179.636 49.3043C189.467 47.837 194.829 40.2065 194.829 31.4022V0.880435H190.957C188.275 0.880435 185.296 0.880435 185.296 0.880435V31.9891H184.999Z" fill="#727272"/>
</g>
</svg>
