<svg width="161" height="35" viewBox="0 0 161 35" fill="none" xmlns="http://www.w3.org/2000/svg">
<g opacity="0.9">
<path d="M23.6765 17.3965C25.9412 19.0533 27.5882 21.5385 27.5882 24.645V25.2663C27.3824 30.4438 23.4706 33.5503 18.1176 34.1716C17.2941 34.1716 16.4706 34.3787 15.4412 34.3787C10.9118 34.3787 6.58824 33.1361 3.08824 30.4438L2.67647 30.2367C1.85294 29.4083 1.44118 29.2012 0.823529 28.3728L0.411765 28.1657C0.205882 27.7515 0 27.5444 0 27.1302C0 26.9231 0 26.716 0.205882 26.5089C0.617647 25.8876 1.23529 25.4734 1.64706 25.0592L4.11765 22.3669C6.79412 24.4379 9.88235 25.6805 13.1765 25.6805C13.3824 25.6805 13.7941 25.6805 14.2059 25.6805H14.6176C16.0588 25.4734 17.5 25.0592 18.1176 23.8166C18.3235 23.4024 18.5294 22.9882 18.5294 22.574C18.5294 22.3669 18.5294 22.3669 18.5294 22.1598C17.7059 21.9527 16.4706 21.7456 15.4412 21.5385C15.2353 21.5385 14.6176 21.5385 14.4118 21.5385C12.5588 21.3314 10.9118 20.9172 9.26471 20.0888C7.61765 19.2604 6.38235 18.2249 5.55882 16.9823C3.08824 15.1183 1.85294 12.426 1.85294 9.52663V9.31953C2.05882 5.79882 4.11765 2.69231 7.61765 1.0355C9.26471 0.207101 11.1176 0 12.9706 0C14.6176 0 16.4706 0.207101 17.9118 0.621302C19.5588 1.0355 21.6176 1.86391 23.0588 2.69231C23.2647 2.89941 23.4706 2.89941 23.4706 2.89941C23.6765 2.89941 26.5588 5.79882 26.5588 6.00592C26.5588 6.21302 26.3529 6.42012 26.1471 6.83432L23.0588 11.1834C21.2059 9.94083 17.7059 8.49113 15.0294 8.49113C13.5882 8.49113 12.3529 8.90533 11.5294 9.94083C11.1176 10.5621 10.9118 11.1834 10.9118 11.8047C10.9118 12.0118 10.9118 12.2189 10.9118 12.426C12.1471 12.8402 13.3824 13.0473 14.8235 13.0473C15.0294 13.0473 15.4412 13.0473 15.8529 13.0473C19.1471 13.4615 21.8235 15.1183 23.6765 17.3965ZM9.67647 12.2189C8.64706 11.5976 8.23529 10.5621 8.23529 9.52663C8.23529 8.69823 8.44118 8.07692 9.05882 7.45562C10.0882 6.42012 11.3235 6.00592 12.9706 6.00592C15.8529 6.00592 18.9412 7.45562 20.7941 8.69823L23.6765 4.76331C23.8824 4.55621 23.8824 4.34911 23.8824 4.14201C23.8824 3.93491 23.4706 3.72781 22.8529 3.31361C21.4118 2.48521 19.5588 1.6568 17.9118 1.2426C16.2647 0.621302 14.6176 0.414201 12.9706 0.414201C11.1176 0.414201 9.47059 0.621302 7.82353 1.4497C4.32353 2.89941 2.47059 5.79882 2.26471 9.31953V9.73373C2.26471 13.0473 3.91176 15.9467 7.20588 17.6036C8.64706 18.2249 10.5 18.432 12.1471 18.6391C14 18.8462 16.2647 18.8462 17.7059 19.8817C18.5294 20.7101 18.9412 21.5385 18.9412 22.574C18.9412 23.1953 18.7353 23.6095 18.5294 24.2308C17.9118 25.4734 16.2647 26.0947 14.6176 26.3018H14.4118C14 26.3018 13.5882 26.3018 13.1765 26.3018C9.88235 26.3018 6.79412 25.0592 4.32353 23.1953L2.05882 25.4734C1.64706 25.8876 1.02941 26.5089 0.617647 26.9231C0.411765 27.1302 0.411765 27.1302 0.411765 27.1302C0.411765 27.3373 0.823529 27.3373 1.02941 27.7515C4.32353 30.4438 8.64706 31.6864 12.9706 31.6864C13.7941 31.6864 14.6176 31.6864 15.4412 31.4793C20.5882 30.858 24.2941 27.7515 24.5 22.9882V22.3669C24.5 17.6036 20.5882 14.0828 15.4412 13.2544C13.7941 13.2544 11.3235 13.2544 9.67647 12.2189Z" fill="#727272"/>
<path d="M55.7941 3.10651V3.31361C57.0294 7.45562 58.0588 11.3905 59.2941 15.3254L62.5882 0.621302C62.7941 0.207101 63.8235 0.207101 64.8529 0.207101C66.0882 0.207101 67.5294 0.207101 68.3529 0.207101H69.7941L72.0588 2.48521L64.4412 31.6864C64.2353 32.3077 64.0294 32.929 64.0294 33.5503C63.8235 34.1716 63.2059 34.3787 62.3824 34.3787C61.9706 34.3787 61.5588 34.3787 61.1471 34.3787C60.9412 34.3787 60.7353 34.3787 60.5294 34.3787H60.3235C60.1176 34.3787 59.7059 34.3787 59.2941 34.3787C58.6765 34.3787 58.0588 34.1716 58.0588 33.7574L55.7941 31.4793L52.0882 18.2249L47.9706 32.929V33.1361C47.9706 33.3432 47.7647 33.7574 47.5588 33.9645C47.3529 34.1716 46.9412 34.1716 46.5294 34.1716C46.1176 34.1716 45.7059 34.1716 45.2941 34.1716C45.0882 34.1716 44.8824 34.1716 44.6765 34.1716C44.6765 34.1716 44.4706 34.1716 44.2647 34.1716C43.8529 34.1716 43.4412 34.1716 43.0294 34.1716C42.6176 34.1716 42.2059 34.1716 42 33.9645C40.7647 33.5503 40.7647 32.7219 39.7353 31.6864C39.5294 31.2722 39.3235 30.6509 39.3235 30.2367C39.3235 30.0296 39.3235 29.8225 39.1176 29.8225L31.9118 0.414201C32.1176 0.414201 32.9412 0.414201 33.3529 0.414201C34.1765 0.414201 35.6176 0.414201 36.6471 0.414201C37.8824 0.414201 38.9118 0.621302 39.1176 1.2426C40.3529 2.69231 41.1765 2.89941 41.3824 3.52071L44.0588 15.5325C45.7059 9.73373 46.9412 5.59172 47.9706 2.07101C47.9706 2.07101 47.9706 2.07101 47.9706 1.86391C48.1765 1.0355 48.3824 0.621302 49.8235 0.621302H53.5294L55.7941 3.10651ZM53.3235 1.4497L53.1176 0.828402H49.8235C48.7941 0.828402 48.5882 1.2426 48.3824 1.86391C48.3824 1.86391 48.3824 1.86391 48.3824 2.07101L45.2941 13.2544C44.6765 15.5325 43.8529 17.8107 43.2353 20.2959C42.2059 15.7396 40.9706 10.9763 39.9412 6.42012C39.5294 4.55621 39.1176 2.69231 38.7059 0.828402C38.7059 0.621302 37.6765 0.621302 36.6471 0.621302C35 0.621302 32.7353 0.621302 32.3235 0.621302L39.9412 29.6154C39.9412 30.0296 40.1471 31.0651 40.3529 31.2722C40.3529 31.2722 40.7647 31.2722 40.9706 31.2722C41.5882 31.2722 42.4118 31.2722 42.6176 31.2722C42.8235 31.2722 43.8529 31.4793 44.4706 31.4793C44.8824 31.4793 45.0882 31.4793 45.2941 31.2722C45.5 31.0651 45.5 30.6509 45.5 30.4438C45.7059 29.6154 45.9118 28.9941 46.1176 28.3728L50.8529 11.3905C52.7059 17.8107 54.3529 24.0237 56.2059 30.4438C56.2059 30.6509 56.4118 31.0651 56.4118 31.2722C56.4118 31.2722 56.8235 31.2722 57.2353 31.2722C57.8529 31.2722 58.4706 31.2722 58.4706 31.2722C58.8824 31.2722 59.7059 31.4793 60.3235 31.4793C60.9412 31.4793 61.3529 31.4793 61.5588 31.0651C62.3824 28.3728 63 25.4734 63.8235 22.7811C65.8824 15.3254 67.7353 8.07692 69.5882 0.621302C69.1765 0.621302 66.9118 0.621302 65.0588 0.621302C64.0294 0.621302 63.2059 0.621302 63.2059 0.828402L61.9706 6.42012C60.9412 10.9763 59.7059 15.7396 58.6765 20.2959C57.0294 13.8757 55.1765 7.66272 53.3235 1.4497Z" fill="#727272"/>
<path d="M79.0588 34.3787L76.7941 32.1006V2.48521C76.7941 2.27811 76.7941 0.414201 77.2059 0.414201H98.4118C99.0294 0.414201 100.265 1.6568 101.294 2.69231C101.294 3.31361 101.294 3.52071 101.294 4.76331C101.294 5.38462 101.294 6.00592 101.294 6.42012V6.83432C101.294 7.04142 101.294 8.90533 100.882 8.90533H86.2647C86.0588 8.90533 85.8529 8.90533 85.8529 9.52663V13.4615H93.2647C93.4706 13.4615 93.4706 13.4615 93.8824 13.4615C94.2941 13.4615 94.9118 13.4615 95.3235 13.4615C96.1471 13.4615 96.5588 13.6686 97.3824 13.6686L99.2353 16.568V19.4675C99.2353 19.4675 99.2353 19.6746 99.2353 19.8817C99.2353 20.0888 99.2353 20.7101 99.2353 20.9172C99.2353 21.3314 99.2353 21.5385 99.0294 21.7456C98.8235 21.9527 98.6177 21.9527 98.2059 21.9527C98 21.9527 97.7941 21.9527 97.5882 21.9527H85.8529C85.8529 22.1598 85.8529 22.1598 85.8529 22.3669V26.5089H97.5882C97.7941 26.5089 99.0294 26.5089 99.0294 26.9231L101.294 29.2012V31.2722C101.294 31.4793 101.294 31.4793 101.294 31.8935C101.294 32.3077 101.294 32.7219 101.294 33.1361C101.294 33.9645 101.088 35 100.471 35H79.0588V34.3787ZM98.4118 31.6864C98.8235 31.6864 98.8235 31.0651 98.8235 30.4438C98.8235 29.6154 98.8235 28.9941 98.8235 28.5799V26.5089C98.8235 26.5089 98 26.5089 97.7941 26.5089H83.5882C83.3824 26.5089 83.3824 26.3018 83.3824 26.0947C83.3824 25.8876 83.3824 25.6805 83.3824 25.6805V19.6746C83.3824 19.6746 83.3824 19.4675 83.3824 19.2604C83.3824 19.0533 83.3824 18.8462 83.5882 18.8462H95.3235C95.5294 18.8462 95.9412 18.8462 96.3529 18.8462C96.5588 18.8462 96.7647 18.8462 96.7647 18.8462C96.7647 18.8462 96.7647 18.6391 96.7647 18.2249C96.7647 17.8107 96.7647 16.9823 96.7647 16.7752V13.8757C96.7647 13.6686 96.1471 13.4615 95.5294 13.4615C94.7059 13.4615 93.8824 13.4615 93.6765 13.4615H86.4706C86.2647 13.4615 85.4412 13.4615 84.8235 13.4615C84.2059 13.4615 83.5882 13.4615 83.5882 13.0473V6.83432C83.1765 6.21302 83.5882 6.21302 84 6.21302H98.6177C98.6177 6.21302 98.6177 4.76331 98.6177 4.55621C98.6177 4.34911 98.6177 3.31361 98.6177 2.48521C98.6177 1.6568 98.6176 0.828402 98.4118 0.828402H77.2059V31.6864H98.4118Z" fill="#727272"/>
<path d="M108.088 34.3787L105.824 32.1006V2.48521C105.824 2.27811 105.824 0.414201 106.235 0.414201H127.441C128.059 0.414201 129.294 1.6568 130.324 2.69231C130.324 3.31361 130.324 3.52071 130.324 4.76331C130.324 5.38462 130.324 6.00592 130.324 6.42012V6.83432C130.324 7.04142 130.324 8.90533 129.912 8.90533H115.294C115.088 8.90533 114.882 8.90533 114.882 9.52663V13.4615H122.294C122.5 13.4615 122.5 13.4615 122.912 13.4615C123.324 13.4615 123.941 13.4615 124.353 13.4615C125.176 13.4615 125.588 13.6686 126.412 13.6686L128.265 16.568V19.4675C128.265 19.4675 128.265 19.6746 128.265 19.8817C128.265 20.0888 128.265 20.7101 128.265 20.9172C128.265 21.3314 128.265 21.5385 128.059 21.7456C127.853 21.9527 127.647 21.9527 127.235 21.9527C127.029 21.9527 126.824 21.9527 126.618 21.9527H114.882C114.882 22.1598 114.882 22.1598 114.882 22.3669V26.5089H126.618C126.824 26.5089 128.059 26.5089 128.059 26.9231L130.324 29.2012V31.2722C130.324 31.4793 130.324 31.4793 130.324 31.8935C130.324 32.3077 130.324 32.7219 130.324 33.1361C130.324 33.9645 130.118 35 129.5 35H108.088V34.3787ZM127.235 31.6864C127.647 31.6864 127.647 31.0651 127.647 30.4438C127.647 29.6154 127.647 28.9941 127.647 28.5799V26.5089C127.647 26.5089 126.824 26.5089 126.618 26.5089H112.412C112.206 26.5089 112.206 26.3018 112.206 26.0947C112.206 25.8876 112.206 25.6805 112.206 25.6805V19.6746C112.206 19.6746 112.206 19.4675 112.206 19.2604C112.206 19.0533 112.206 18.8462 112.412 18.8462H124.147C124.353 18.8462 124.765 18.8462 125.176 18.8462C125.382 18.8462 125.588 18.8462 125.588 18.8462C125.588 18.8462 125.588 18.6391 125.588 18.2249C125.588 17.8107 125.588 16.9823 125.588 16.7752V13.8757C125.588 13.6686 124.971 13.4615 124.353 13.4615C123.529 13.4615 122.706 13.4615 122.5 13.4615H115.294C115.088 13.4615 114.265 13.4615 113.647 13.4615C113.029 13.4615 112.412 13.4615 112.412 13.0473V6.83432C112.206 6.21302 112.618 6.21302 113.029 6.21302H127.647C127.647 6.21302 127.647 4.76331 127.647 4.55621C127.647 4.34911 127.647 3.31361 127.647 2.48521C127.647 1.6568 127.647 0.828402 127.441 0.828402H106.235V31.6864H127.235Z" fill="#727272"/>
<path d="M134.853 6.42012V1.4497C134.853 0.621302 135.059 0.414201 135.676 0.414201H135.882C136.088 0.414201 136.088 0.414201 136.5 0.414201H157.706C158.735 0.414201 158.941 0.621302 161 3.52071V3.93491C161 4.14201 161 4.34911 161 4.55621V4.97041C161 5.38462 161 6.00592 161 6.62722C161 7.66272 160.794 8.69823 160.382 8.69823H154.412C154.206 8.69823 154 8.69823 153.794 8.69823C153.588 8.69823 153.176 8.69823 152.765 8.69823C152.559 8.69823 152.147 8.69823 152.147 8.69823V33.7574C152.147 34.3787 151.324 34.5858 150.294 34.5858C149.882 34.5858 149.059 34.5858 148.647 34.5858C148.441 34.5858 148.235 34.5858 148.235 34.5858C148.029 34.5858 147.824 34.5858 147.618 34.5858C147.412 34.5858 147 34.5858 146.588 34.5858C145.765 34.5858 145.147 34.3787 143.088 31.2722V8.49113H142.059C140.618 8.49113 139.382 8.49113 138.353 8.49113H136.912L134.853 6.42012ZM135.265 6.00592C135.676 6.00592 137.941 6.00592 140 6.00592C142.059 6.00592 143.912 6.00592 143.912 6.21302V31.0651C143.912 31.4793 144.324 31.6864 144.735 31.6864C145.353 31.6864 145.971 31.4793 146.382 31.4793C146.588 31.4793 147.618 31.4793 148.441 31.4793C149.059 31.4793 149.676 31.4793 149.676 31.2722V6.21302C149.676 6.00592 150.088 5.79882 150.706 5.79882C151.324 5.79882 151.941 5.79882 152.353 5.79882H158.324C158.529 6.00592 158.529 5.17752 158.529 4.14201C158.529 3.31361 158.529 2.27811 158.529 2.07101C158.529 1.6568 158.529 1.4497 158.529 1.2426C158.529 0.828402 158.324 0.828402 157.706 0.828402H136.5C136.088 0.828402 135.882 0.828402 135.676 0.828402C135.471 0.828402 135.265 0.828402 135.265 1.4497V6.00592Z" fill="#727272"/>
</g>
</svg>
