<svg width="160" height="58" viewBox="0 0 160 58" fill="none" xmlns="http://www.w3.org/2000/svg">
<g opacity="0.9">
<path d="M37.2118 13.4128C33.0683 14.389 30.631 15.8534 30.631 15.8534C32.0934 15.3652 34.287 14.6331 37.4555 14.145C48.6672 12.4366 53.2982 16.0974 51.592 19.5142C51.1046 19.2702 51.1046 19.2702 51.1046 19.0261C51.1046 18.2939 50.3734 17.5618 48.6672 17.5618C48.1798 17.5618 47.9361 17.5618 47.4486 17.5618C45.9862 17.5618 45.7425 16.0974 44.5238 15.6093C42.5739 15.1212 42.5739 16.8296 42.0865 18.0499C40.3803 21.9548 37.6993 16.8296 35.5057 17.8058C34.287 18.2939 35.0182 19.7583 34.0433 20.2464C32.8246 20.9785 31.8497 19.7583 30.8747 19.7583C29.8998 19.7583 28.9249 19.7583 28.1937 20.4904C26.0001 21.9548 27.2188 24.8835 27.4625 24.8835H27.2188C25.2689 23.4191 24.7814 21.4667 26.4876 19.0261C27.95 17.0736 30.1435 15.6093 30.1435 15.6093C30.1435 15.6093 29.1686 15.8534 27.7062 16.8296C21.3692 21.4667 24.7814 26.5919 31.1185 27.324C41.3553 28.5443 52.0795 23.1751 52.3232 19.2702C53.5419 16.0974 50.6171 13.6569 47.9361 12.9247C44.5238 12.4366 40.3803 12.6806 37.2118 13.4128ZM31.6059 26.1037C31.6059 25.8597 31.6059 25.3716 31.8497 24.8835C33.7995 23.1751 42.8177 20.4904 48.1798 22.1988C44.2801 24.3953 36.2369 26.3478 31.6059 26.1037ZM50.3734 20.7345C49.8859 21.9548 48.911 21.2226 47.9361 20.9785C41.599 19.2702 31.6059 22.4429 30.631 25.1275L30.3873 26.1037C26.4876 26.1037 26.2438 20.7345 29.8998 20.9785C31.1185 21.2226 33.0683 22.1988 34.5307 20.9785C35.5057 20.2464 35.0182 19.2702 35.7494 19.0261C37.2118 18.782 39.4054 22.1988 41.599 19.0261C42.0865 18.2939 43.3051 16.0974 44.5238 17.0736C44.7675 17.3177 45.255 18.0499 45.7425 18.2939C46.9611 18.782 48.1798 18.0499 49.1547 18.538C50.1296 18.782 50.6171 20.0023 50.3734 20.7345Z" fill="#727272"/>
<path d="M65.2411 3.16242C40.3803 -7.33201 -3.00412 9.75195 0.164405 32.9373C0.408138 35.1338 1.6268 37.0863 2.358 39.2828C4.5516 45.8723 11.1324 51.4856 17.4694 54.6584C25.5126 58.5633 34.0433 58.5633 42.5739 57.0989C54.5168 55.1465 67.6784 50.7535 74.7467 40.5031C78.1589 35.866 79.1339 29.0324 78.8901 23.4191C78.6464 22.931 80.84 9.75195 65.2411 3.16242ZM19.9068 7.55544C45.9862 -5.1355 72.5531 1.94214 77.184 16.8296C78.4027 20.4904 76.6965 20.9785 75.2341 23.6632C74.2592 25.1275 75.7216 28.3002 74.2592 29.2765C73.2843 29.7646 73.0405 29.0324 72.0656 29.2765C70.3595 29.5205 70.6032 33.6695 70.6032 33.9135C70.1157 39.0387 66.7035 34.4017 64.7536 36.5982C64.0224 37.3303 64.5099 38.3066 64.0224 39.0387C63.535 39.5269 63.2912 39.2828 62.56 39.0387C58.4166 37.5744 60.3664 42.2115 56.223 43.1877C51.8358 43.9199 48.911 39.7709 43.5489 43.6758C40.8678 45.6283 40.6241 52.2178 34.5307 45.6283C33.7995 44.8961 33.0683 44.408 32.0934 44.652C31.1185 44.8961 30.631 45.6283 29.8998 46.3604C27.4625 49.2891 26.7313 44.8961 24.7814 44.1639C23.5628 43.6758 22.3441 44.1639 21.6129 45.3842C20.8817 46.6045 21.3692 49.7772 19.4193 49.7772C17.9569 49.7772 16.4945 47.3367 15.7633 46.3604C14.3009 43.9199 13.8134 40.7471 10.4012 40.015C8.45132 39.5269 5.77026 41.9674 2.358 37.3303C-2.02919 30.4968 0.65187 16.8296 19.9068 7.55544ZM74.7467 38.0625C68.8971 48.0688 56.9542 52.7059 45.4987 55.1465C31.6059 58.0752 20.638 57.8311 9.42626 48.0688C6.50146 45.6283 4.5516 42.6996 3.33293 39.2828C4.5516 40.5031 6.01399 41.2352 7.72012 40.7471C8.69506 40.5031 9.18252 40.015 10.1575 40.259C11.1324 40.5031 12.1073 41.2352 12.5948 41.9674C14.3009 44.1639 15.0321 46.8485 16.982 48.5569C18.9318 50.5094 21.6129 50.2653 22.3441 47.0926C22.5878 46.3604 22.3441 45.6283 22.8316 45.1402C25.5126 42.4555 26.7313 51.2416 30.1435 47.3367C30.8747 46.6045 31.6059 45.3842 32.3371 45.3842C33.0683 45.3842 33.7995 46.1164 34.287 46.8485C35.5057 48.0688 37.2118 49.0451 38.9179 48.801C41.3553 48.5569 41.599 46.6045 43.0614 44.8961C44.5238 43.4318 46.9611 42.4555 49.1547 42.6996C51.1046 42.9436 53.2982 44.1639 55.248 44.1639C56.7104 44.1639 58.1728 43.4318 59.1478 42.4555C59.6352 41.7234 59.879 40.259 60.6102 39.7709C62.0726 38.7947 64.7536 40.9912 65.4848 38.7947C65.7285 38.0625 65.4848 37.3303 66.216 36.8422C67.1909 36.3541 68.4096 37.0863 69.3845 37.0863C72.7968 36.3541 70.8469 32.6933 72.0656 30.7408C72.5531 29.7646 73.528 30.0086 74.5029 30.0086C75.7216 29.7646 75.9653 28.5443 75.7216 27.5681C75.2341 25.1275 74.9904 24.6394 77.6715 22.931V23.1751C75.7216 26.1037 77.6715 28.5443 75.7216 30.4968C74.0155 31.9611 71.3344 29.2765 71.8219 35.3779C71.8219 36.5982 71.8219 37.5744 70.8469 38.3066C69.872 39.0387 68.8971 38.3066 66.7035 39.2828C65.2411 40.5031 65.7286 42.2115 63.7787 41.7234C61.5851 41.2352 60.8539 40.9912 59.1478 43.9199C55.4918 50.7535 48.4235 40.9912 43.5489 46.8485C42.8177 47.8248 42.0865 48.5569 40.6241 49.5332C38.4305 50.7535 35.7494 50.5094 33.7995 49.5332C33.0683 49.0451 32.3371 48.0688 31.3622 48.3129C30.631 48.5569 30.3873 49.2891 30.1435 49.5332C29.6561 50.0213 28.1937 50.5094 26.975 49.7772C25.5126 49.0451 25.2689 47.3367 23.8065 47.3367C21.6129 47.3367 21.6129 50.5094 20.1505 51.2416C16.7382 53.194 13.5697 47.0926 12.351 45.1402C9.42625 41.2352 7.96386 42.6996 5.77026 42.4555C4.5516 42.4555 4.06413 41.7234 4.06413 41.7234C5.2828 43.1877 6.98893 42.6996 8.45132 42.9436C12.1073 43.6758 13.0822 50.9975 17.7132 52.2178C19.1756 52.7059 20.638 52.4618 21.3692 51.2416C22.3441 50.2653 22.5878 47.5807 24.0502 48.0688C25.0252 48.3129 25.0252 49.7772 27.2188 50.5094C27.7062 50.7535 27.95 50.7535 28.4374 50.7535C30.1435 50.5094 30.8747 49.2891 31.1185 49.0451C31.8497 48.0688 32.8246 49.2891 33.5558 49.7772C34.287 50.2653 35.7494 50.9975 37.4555 50.9975C39.4054 50.9975 41.3553 50.2653 42.8177 49.0451C43.3051 48.5569 43.7926 48.0688 44.2801 47.5807C48.911 41.9674 55.9792 51.9737 59.879 44.8961C60.8539 43.1877 61.0976 42.2115 63.0475 42.4555C63.7787 42.6996 64.2662 42.6996 64.9974 42.6996C65.7286 42.4555 66.216 41.9674 66.4597 41.4793C66.7035 40.7471 66.9472 40.259 67.4347 40.015C67.6784 39.7709 67.9221 39.7709 68.1659 39.7709C68.6533 39.7709 69.3845 39.7709 70.1157 39.5268C70.3595 39.5268 70.8469 39.2828 71.0907 39.2828C71.3344 39.0387 71.5781 38.7947 71.8219 38.5506C73.2843 36.5982 71.3344 33.4254 72.7968 32.2052C73.7717 31.717 74.7467 32.2052 75.9653 30.9849C77.9152 28.7884 75.7216 26.8359 77.4277 23.6632C78.1589 27.08 77.4277 33.4254 74.7467 38.0625Z" fill="#727272"/>
<path d="M68.6534 43.4318C58.6603 49.7772 47.4486 53.6821 35.7494 54.4143C28.4374 54.9024 24.7814 54.1702 22.5878 54.1702C23.319 54.1702 26.975 55.3905 33.3121 55.6346C33.7995 55.6346 34.0433 55.6346 34.5307 55.6346C35.0182 55.6346 35.2619 55.6346 35.7494 55.6346C36.7243 55.6346 37.4555 55.6346 38.4305 55.3905C39.4054 55.3905 40.3803 55.1465 41.599 55.1465C53.5419 53.4381 62.56 49.2891 69.872 43.1877C70.6032 42.6996 70.8469 42.4555 70.8469 42.4555C70.8469 42.4555 70.6032 42.4555 70.1157 42.9436C69.3845 42.9436 69.1408 43.1877 68.6534 43.4318Z" fill="#727272"/>
<path d="M48.4235 26.3478C48.6672 26.1037 48.911 25.8597 49.1547 25.8597C50.6171 24.8835 51.8358 23.4191 51.8358 23.4191C51.8358 23.4191 48.6672 25.3716 48.1798 25.6156C47.936 25.8597 47.6923 25.8597 47.2048 26.1037C46.9611 26.3478 46.4737 26.3478 45.9862 26.5919C44.2801 27.324 42.3302 28.3002 39.6491 28.7884C32.3371 30.4968 26.4876 28.3002 25.5126 28.3002C26.0001 28.3002 27.7062 30.0086 34.0433 30.4968C34.5307 30.4968 35.2619 30.4968 35.7494 30.4968C36.2369 30.4968 36.9681 30.4968 37.6993 30.2527C37.943 30.2527 38.4305 30.2527 38.6742 30.0086C38.9179 30.0086 39.4054 30.0086 39.6491 29.7646C42.8177 29.2765 45.7425 28.0562 48.4235 26.3478Z" fill="#727272"/>
<path d="M25.0252 39.7709C23.0753 39.7709 22.3441 40.015 20.638 40.5031C16.007 41.9674 16.007 39.0387 8.45132 34.8898C8.20759 34.6457 7.96386 34.6457 7.96386 34.6457C7.96386 34.6457 7.96386 34.6457 8.45132 34.8898C8.45132 35.3779 8.93879 35.6219 9.66999 36.3541C14.3009 39.7709 15.5196 42.2115 19.1756 41.9674C21.8566 41.7234 20.638 40.9912 26.2438 40.5031C27.95 40.5031 28.4374 40.259 28.4374 40.259C28.4374 40.259 28.4374 40.259 27.95 40.259C26.4876 39.7709 25.7564 39.7709 25.0252 39.7709Z" fill="#727272"/>
<path d="M29.1686 38.0625C32.0934 37.8185 34.5307 37.5744 36.2369 37.0863C36.7243 37.0863 36.9681 36.8422 36.9681 36.8422C36.9681 36.8422 36.7243 36.8422 34.287 36.8422C33.0683 36.8422 31.6059 37.0863 29.6561 37.0863C10.6449 37.5744 8.20759 30.7408 7.47639 30.4968C7.47639 30.7408 10.1575 39.2828 29.1686 38.0625Z" fill="#727272"/>
<path d="M43.0614 35.6219C43.5489 35.6219 45.4987 36.1101 51.1046 34.4017C52.8107 33.9135 52.567 33.9135 54.2731 33.1814C56.7104 31.9611 58.4166 31.2289 61.3414 29.0324C62.0726 28.5443 62.56 28.0562 63.0475 27.5681C63.2912 27.324 63.535 27.08 63.7787 26.8359C64.9974 25.6156 65.9723 24.3953 65.9723 24.3953L63.0475 26.8359C62.8038 27.08 62.56 27.324 62.3163 27.5681C62.0726 27.8121 61.8288 28.0562 61.3414 28.3002C60.1227 29.2765 58.1728 30.4968 55.9792 31.473C53.5419 32.6933 51.592 33.4254 50.1296 33.9135C46.4737 34.8898 44.7675 35.1338 43.0614 35.6219Z" fill="#727272"/>
<path d="M67.1909 10.2401C70.3595 14.6331 68.8971 18.538 68.8971 19.7583C68.8971 19.7583 71.0907 17.0736 69.6283 12.9247C68.1659 9.01978 65.2411 8.04355 65.2411 8.04355C65.2411 8.04355 65.2411 8.04355 65.4848 8.28761C65.9723 8.77572 66.4597 9.26383 67.1909 10.2401Z" fill="#727272"/>
<path d="M75.2341 17.5618C74.9904 12.4366 71.8219 10.2401 71.5781 10.2401C71.8219 10.9722 74.0155 13.6569 74.2592 17.5618C74.5029 21.4667 72.7968 24.3953 72.7968 24.8835C72.7968 24.8835 75.2341 20.2464 75.2341 17.5618Z" fill="#727272"/>
<path d="M42.8177 3.65053C43.3051 3.65053 43.5489 3.65053 43.5489 3.65053C43.5489 3.65053 43.5489 3.40648 42.8177 3.65053C33.5558 2.91836 20.8817 7.31138 12.5948 15.6093C10.4012 17.8058 10.4012 17.8058 9.91372 18.538C19.1756 10.4841 27.95 4.87081 42.8177 3.65053Z" fill="#727272"/>
<path d="M6.74519 33.4254C4.06413 29.5205 3.57667 26.8359 5.77026 22.1988C5.77026 22.1988 5.77026 22.1988 5.52653 22.4429C5.03906 22.931 4.30786 23.6632 3.8204 24.8835C3.0892 27.8121 3.8204 31.717 6.74519 33.4254Z" fill="#727272"/>
<path d="M64.9974 29.7646C64.7536 30.2527 64.2662 30.4968 64.0224 30.9849C60.6102 35.3779 59.1478 35.6219 55.7355 35.866C54.7606 35.866 54.0294 35.866 53.2982 35.866C52.567 35.866 52.0795 36.1101 51.3483 36.1101C49.6422 36.5982 49.1547 37.5744 48.911 37.5744C51.3483 36.1101 52.3232 36.3541 55.4918 36.3541C62.3163 36.5982 62.3163 33.1814 67.6784 27.5681C70.1157 24.8835 70.1157 24.3953 70.3595 24.1513C66.4597 28.0562 66.9472 27.324 65.7286 28.5443C65.4848 29.0324 65.2411 29.5205 64.9974 29.7646Z" fill="#727272"/>
<path d="M95.9514 37.8185C101.557 41.7234 107.894 44.8961 117.644 47.3367C122.031 48.5569 126.418 49.2891 131.293 49.5332C140.311 50.0213 142.748 49.2891 143.723 49.2891C134.949 48.801 129.343 48.801 119.837 46.6045C110.575 44.408 104.238 41.7234 95.9514 37.8185Z" fill="#727272"/>
<path d="M115.694 36.3541C115.938 36.3541 115.938 36.1101 115.694 36.1101C114.963 36.1101 113.988 36.1101 113.256 35.866C112.525 35.6219 111.794 35.3779 111.307 34.8898C111.794 36.5982 114.231 36.8422 115.694 36.3541Z" fill="#727272"/>
<path d="M120.812 38.5506C122.275 39.2828 123.981 40.7471 125.687 40.5031C126.906 40.259 127.637 39.7709 129.099 39.7709C130.561 39.7709 131.78 40.5031 133.243 40.9912C133.243 40.9912 133.486 40.9912 133.243 40.7471C131.78 39.5268 129.587 39.2828 127.88 39.5268C126.662 39.5268 125.687 40.015 124.468 39.7709C123.006 39.2828 122.031 38.7947 120.812 38.5506Z" fill="#727272"/>
<path d="M95.9514 17.5618C97.1701 18.0499 97.1701 19.5142 98.145 20.4904C99.12 21.2226 100.826 20.9785 102.045 21.9548C100.826 20.9785 99.3637 20.9785 98.145 19.7583C97.4138 18.538 96.9264 17.8058 95.9514 17.5618C95.9514 17.3177 95.9514 17.3177 95.9514 17.5618Z" fill="#727272"/>
<path d="M110.332 26.3478C111.063 26.5919 111.55 26.5919 112.282 26.5919C113.256 26.8359 114.231 27.324 114.963 28.0562C115.694 28.7884 116.669 29.5205 117.644 29.5205C119.106 29.7646 120.568 29.5205 122.031 29.7646C121.056 29.2765 119.837 29.2765 118.862 29.0324C117.4 28.7884 116.425 28.3002 115.206 27.324C114.231 26.5919 113.5 26.3478 112.525 26.1037C110.819 25.8597 109.357 25.8597 108.138 24.6394C107.894 24.3953 107.651 24.6394 107.894 24.8835C108.626 25.6156 109.357 26.1037 110.332 26.3478Z" fill="#727272"/>
<path d="M131.293 31.2289C132.999 31.473 134.949 32.9373 136.655 31.9611V31.717C135.436 31.9611 134.705 31.717 133.486 31.2289C132.755 30.9849 131.78 30.4968 131.049 30.2527C130.561 30.2527 130.074 30.2527 129.343 30.2527C126.906 30.7408 125.687 29.7646 125.931 30.0086C127.637 31.9611 129.587 30.9849 131.293 31.2289Z" fill="#727272"/>
<path d="M143.479 33.1814C143.967 33.1814 144.211 33.1814 144.698 32.9373C145.429 32.6933 146.16 32.4492 147.135 32.4492C147.379 32.4492 146.892 31.9611 145.429 32.2052C142.748 32.9373 141.042 31.2289 139.336 32.4492C140.798 32.2052 142.017 33.1814 143.479 33.1814Z" fill="#727272"/>
<path d="M151.035 32.2052C151.766 32.4492 152.741 32.2052 153.229 31.717V31.473C152.985 31.473 152.497 31.717 152.254 31.717C151.766 31.9611 151.523 31.9611 151.035 32.2052Z" fill="#727272"/>
<path d="M93.2704 25.8597C93.5141 26.1037 93.7578 26.3478 94.2453 26.5919C94.9765 27.08 95.2202 27.324 95.7077 28.0562C96.1952 28.5443 96.1952 28.7884 96.9264 29.0324C98.3888 29.5205 100.095 30.0086 101.314 30.9849C100.582 30.4968 100.095 30.0086 99.12 29.7646C98.6325 29.5205 98.145 29.2765 97.6576 29.2765C96.6826 28.7884 96.4389 28.7884 95.9514 27.8121C95.7077 27.324 95.7077 27.08 95.2202 26.8359C94.0016 26.1037 93.2704 25.6156 92.7829 24.1513C92.7829 23.9072 92.5392 23.9072 92.5392 24.1513C92.7829 24.6394 92.7829 25.3716 93.2704 25.8597Z" fill="#727272"/>
<path d="M141.042 40.7471C142.992 41.9674 144.211 41.2352 145.917 40.5031C147.135 40.259 148.11 40.7471 149.085 40.5031C149.816 40.5031 150.548 40.015 151.279 39.7709V39.5268C150.304 40.015 149.085 40.015 147.867 39.7709C147.379 39.5268 146.892 39.5268 146.16 39.7709C145.429 40.015 144.698 40.259 144.211 40.5031C143.236 40.9912 142.261 40.7471 141.042 40.7471Z" fill="#727272"/>
<path d="M155.666 43.9199C155.666 43.6758 155.666 43.6758 155.666 43.4318C155.666 42.9436 155.666 42.4555 155.666 41.9674C155.666 41.4793 155.179 40.5031 155.422 40.259C155.666 39.7709 156.153 39.7709 156.641 39.2828C156.885 38.7947 156.641 37.8185 156.641 37.3303C156.641 37.0863 155.91 35.866 155.666 36.1101C155.91 35.6219 156.153 34.8898 155.91 34.4017C155.91 34.1576 156.885 32.9373 157.128 32.6933C157.372 31.9611 157.128 31.2289 157.372 30.4968C157.616 30.0086 157.86 30.0086 157.616 29.5205C157.86 29.2765 158.103 29.0324 158.103 28.7884C160.297 27.5681 160.541 21.7107 159.078 19.0261C157.372 15.8534 153.96 13.6569 151.035 11.7044C140.555 4.3827 104.238 -6.59984 94.2453 5.60298C94.0016 6.0911 93.7578 6.33515 93.5141 6.82327C92.2954 9.996 92.0517 11.2163 93.0266 12.9247C94.2453 14.8771 92.2954 14.8771 91.808 16.3415C91.5642 17.5618 93.0266 18.0499 93.0266 19.2702C93.0266 20.0023 92.2954 20.2464 91.808 20.4904C91.3205 20.7345 91.0768 21.4667 90.5893 21.7107C90.1018 21.7107 89.8581 21.2226 89.3706 21.7107C88.8832 21.9548 88.8832 22.6869 88.8832 23.1751C88.8832 23.4191 88.8832 24.1513 89.1269 24.3953L89.6144 24.6394V24.8835C88.6394 26.1037 87.9082 27.5681 87.6645 29.2765C87.9082 30.7408 88.152 31.9611 88.3957 33.4254C92.0517 41.7234 108.869 48.3129 120.325 50.7535C133.243 53.4381 152.254 54.9024 155.422 45.1402C155.422 44.408 155.422 44.1639 155.666 43.9199ZM93.7578 8.77572C94.7328 -1.71871 124.468 -2.20683 147.135 10.4841C160.541 17.8058 159.809 22.1988 157.86 27.08C154.447 30.0086 147.135 29.7646 143.723 29.7646C118.375 29.0324 99.3637 18.538 95.2202 13.6569C94.7328 13.1687 94.2453 12.6806 94.0016 12.1925C93.5141 11.2163 93.5141 9.75195 93.7578 8.77572ZM92.7829 16.3415C92.7829 16.0974 94.0016 14.6331 94.2453 14.145C94.9765 15.1212 95.9514 16.0974 96.9264 16.8296C99.3637 19.0261 102.288 20.7345 104.726 21.9548C116.425 27.8121 137.142 32.9373 150.548 30.7408C152.254 30.7408 154.447 30.4968 156.397 29.5205C156.885 29.7646 156.397 30.4968 156.153 30.9849C155.666 31.9611 155.91 33.1814 154.935 33.6695C154.204 34.1576 152.985 33.9135 152.254 33.6695C149.816 32.9373 148.354 33.6695 145.917 34.1576C144.211 34.6457 142.992 33.9135 141.286 33.4254C139.823 32.9373 137.873 32.9373 136.899 34.4017C135.436 34.4017 133.974 32.4492 132.511 32.2052C131.049 31.9611 129.587 33.9135 126.906 32.6933C119.35 28.7884 119.837 31.473 116.912 30.2527C115.694 29.7646 114.475 29.0324 113.5 28.3002C111.55 26.8359 109.6 27.08 107.407 26.3478C105.457 25.6156 104.726 22.6869 102.288 22.1988C100.339 21.7107 94.9765 22.6869 96.4389 19.7583C96.9264 19.0261 95.464 18.782 94.9765 18.782C94.0016 18.538 92.7829 17.5618 92.7829 16.3415ZM105.213 27.5681C105.701 27.8121 106.676 28.3002 107.894 29.0324C109.113 29.7646 111.063 30.4968 113.5 31.2289C115.938 31.9611 119.106 32.9373 122.762 33.9135C130.074 35.3779 134.705 35.6219 137.63 35.6219C139.092 35.6219 140.067 35.6219 140.555 35.6219C141.042 35.6219 141.529 35.6219 141.529 35.6219C141.529 35.6219 141.286 35.6219 140.798 35.6219C140.555 35.6219 140.311 35.6219 139.823 35.6219C139.336 35.6219 138.848 35.6219 138.117 35.3779C137.873 35.3779 137.873 35.3779 137.63 35.3779C141.042 33.6695 142.748 36.8422 146.16 35.866C146.892 35.6219 147.379 35.3779 147.867 35.1338C150.548 33.9135 152.497 36.1101 154.691 35.3779C154.691 35.866 154.447 36.3541 153.96 36.8422C153.472 37.3303 153.229 37.5744 152.741 37.8185C150.06 38.7947 146.648 38.7947 143.723 38.7947C139.336 38.7947 134.949 38.3066 130.805 37.5744C121.543 36.1101 112.282 33.9135 103.751 30.0086C101.314 28.7884 98.8762 27.5681 96.6826 25.8597C95.9514 25.3716 91.808 20.9785 93.7578 20.2464C94.0016 20.0023 94.489 20.2464 94.489 20.4904C94.9765 20.9785 94.9765 21.7107 95.2202 21.9548C95.7077 22.931 96.9264 23.4191 97.9013 23.6632C99.3637 23.9072 101.07 23.6632 102.532 24.3953C103.995 24.8835 104.726 26.3478 105.944 27.08C109.357 29.5205 112.525 28.7884 114.719 30.2527C120.325 34.6457 118.131 29.5205 125.199 33.4254C125.443 33.6695 125.687 33.6695 125.931 33.6695C121.543 32.9373 117.644 31.9611 113.744 30.7408C111.307 30.0086 109.357 29.2765 108.138 28.7884C106.676 28.0562 105.701 27.5681 105.213 27.5681C104.726 27.324 104.482 27.08 104.482 27.08C104.482 27.08 104.482 27.324 105.213 27.5681ZM129.83 33.9135C130.561 33.6695 131.293 33.4254 132.511 33.6695C133.486 33.6695 134.461 34.1576 135.436 34.6457C135.192 34.6457 134.705 34.6457 134.461 34.6457C133.974 34.6457 133.243 34.4017 132.755 34.4017C131.78 34.1576 130.805 34.1576 129.83 33.9135ZM89.8581 22.4429C90.1018 22.1988 90.5893 22.4429 90.833 22.4429C91.3205 22.1988 91.5642 21.7107 91.808 21.7107C92.7829 21.2226 92.5392 21.9548 93.0266 22.931C94.0016 24.6394 95.464 26.1037 96.9264 27.08C108.382 36.8422 141.042 42.6996 152.01 38.5506C152.01 38.5506 152.01 38.5506 152.254 38.5506C153.229 38.3066 154.447 38.0625 154.935 37.3303C155.666 38.0625 155.666 39.0387 154.691 39.5268C153.96 39.7709 153.229 39.5269 152.741 40.015C152.01 40.5031 151.523 41.2352 150.791 41.4793C149.816 41.7234 148.354 41.4793 147.379 41.4793C146.404 41.4793 145.429 41.9674 144.454 42.2115C143.236 42.4555 142.017 42.9436 140.798 42.6996C139.58 42.4555 138.848 41.7234 137.63 41.7234C136.655 41.7234 135.68 41.9674 134.949 42.2115C133.486 42.6996 132.511 42.4555 131.049 41.7234C130.318 41.2352 129.587 40.9912 128.612 40.9912C127.393 40.9912 126.418 41.4793 125.199 41.4793C123.493 41.4793 121.543 40.7471 120.081 39.7709C118.862 39.0387 118.131 38.0625 116.912 37.8185C115.938 37.5744 115.206 38.0625 114.475 38.0625C113.5 38.0625 112.525 37.8185 111.794 37.3303C110.575 36.5982 109.6 35.3779 108.626 34.8898C107.163 33.9135 105.944 34.1576 104.482 34.1576C100.582 34.1576 99.3637 30.4968 96.1952 30.7408H95.9514C92.7829 30.7408 93.7578 25.8597 90.833 25.6156C90.833 25.3716 90.833 25.3716 90.833 25.1275C90.833 24.8835 90.5893 24.6394 90.3456 24.6394C89.8581 23.4191 89.6144 22.4429 89.8581 22.4429ZM149.573 42.2115C147.623 42.9436 145.429 43.1877 143.479 43.1877C147.135 42.2115 146.16 41.9674 149.573 42.2115ZM139.823 43.4318C135.192 43.4318 130.805 43.1877 125.443 42.2115C125.931 42.2115 126.662 41.9674 127.393 41.7234C128.368 41.4793 129.099 41.2352 130.074 41.7234C130.561 41.9674 131.049 42.4555 131.78 42.6996C134.461 43.9199 135.68 41.7234 137.386 42.4555C138.117 42.6996 138.848 43.1877 139.823 43.4318ZM121.787 41.4793C121.543 41.4793 121.543 41.4793 121.3 41.4793C114.475 40.015 107.651 37.8185 101.314 34.4017C103.995 35.3779 106.188 33.1814 108.382 35.866C109.6 37.3303 110.819 38.3066 112.282 38.5506C112.769 38.5506 113.256 38.7947 113.988 38.5506C116.912 38.0625 118.619 39.7709 120.812 40.9912C121.3 41.2352 121.543 41.4793 121.787 41.4793ZM100.339 33.9135C98.8762 32.9373 97.4138 32.2052 95.9514 30.9849C95.9514 30.9849 95.9514 30.9849 96.1952 30.7408C97.9013 30.9849 99.12 32.6933 100.339 33.9135ZM92.2954 28.0562C91.5642 27.324 90.833 26.3478 90.3456 25.3716C91.5642 25.6156 92.0517 26.8359 92.2954 28.0562ZM153.716 45.8723C149.573 52.95 128.855 50.7535 120.812 49.0451C111.55 47.0926 93.0266 40.259 89.3706 32.2052C92.0517 35.1338 94.9765 36.3541 94.9765 36.3541C94.7328 36.1101 93.0266 34.8898 91.0768 32.6933C89.3706 30.7408 88.152 30.0086 88.8832 27.5681C88.8832 27.324 89.8581 26.1037 89.8581 26.1037C91.5642 33.1814 115.694 44.8961 138.848 44.8961C143.967 44.8961 151.523 44.652 154.935 40.9912C156.153 44.8961 151.279 47.3367 147.867 48.801C147.379 48.5569 151.523 47.3367 153.716 45.8723Z" fill="#727272"/>
<path d="M101.07 13.9009C103.263 15.1212 105.944 16.8296 109.844 18.538C121.3 23.1751 144.211 29.2765 155.179 24.3953C155.422 24.3953 155.422 24.1513 155.422 24.1513C155.422 24.1513 155.422 24.1513 155.179 24.1513C151.766 24.8835 148.354 25.6156 140.798 24.8835C131.049 23.9072 119.594 20.9785 110.332 17.5618C106.919 16.3415 99.6074 12.6806 96.4389 9.50789C96.6826 9.50789 98.6325 12.4366 101.07 13.9009Z" fill="#727272"/>
</g>
</svg>
