<svg width="185" height="35" viewBox="0 0 185 35" fill="none" xmlns="http://www.w3.org/2000/svg">
<g opacity="0.9">
<path d="M26.8842 17.5C26.8842 18.4091 26.8842 19.5455 26.8842 20.4545C26.8842 20.9091 26.8842 21.5909 26.8842 21.8182C26.8842 25 26.2007 27.9545 23.9224 30.4545C21.4163 33.1818 17.7709 34.5455 14.1256 34.5455C2.96182 34.5455 2.96182 34.5455 2.96182 34.5455C2.27832 34.5455 2.27833 34.5455 0 32.2727C0 32.0455 0 31.3636 0 31.1364V0.454545H11.1638C13.67 0.454545 15.9483 0.681818 17.9988 1.59091C19.5936 2.5 21.1884 3.63636 22.3276 5.22727C24.6059 7.04545 26.2007 9.54545 26.6564 12.0455C26.6564 13.8636 26.8842 15.6818 26.8842 17.5ZM17.7709 2.04545C15.4926 0.909091 13.2143 0.909091 10.936 0.909091H2.73399C1.36699 0.909091 0.227833 0.909091 0.227833 0.909091V30.9091C0.227833 31.1364 0.227833 31.3636 0.227833 31.5909C0.227833 31.8182 0.227833 32.0455 0.455665 32.0455H11.6195C15.2648 32.0455 18.6823 30.6818 21.1884 28.1818C23.4667 25.6818 23.9224 22.9545 24.1502 19.7727C24.1502 18.4091 24.3781 16.8182 24.3781 15.2273C24.3781 13.4091 24.3781 11.5909 24.1502 9.77273C23.2389 6.59091 20.9606 3.40909 17.7709 2.04545ZM11.3916 6.13636C14.3534 6.13636 17.0874 7.72727 17.7709 10.4545C17.9988 11.8182 18.2266 13.4091 18.2266 15C18.2266 16.8182 17.9988 18.6364 17.9988 20.4545C17.7709 23.1818 16.6318 25.9091 13.4421 26.3636C12.5308 26.5909 11.6195 26.5909 10.4803 26.5909C9.34113 26.5909 7.97414 26.5909 6.83498 26.5909C6.37931 26.5909 6.15148 26.3636 6.15148 25.9091C6.15148 25.4545 6.15148 25.2273 6.15148 24.7727V6.13636H11.3916ZM9.1133 8.86364V26.1364H10.4803C11.3916 26.1364 12.303 26.1364 13.2143 25.9091C16.1761 25.4545 17.3153 22.9545 17.5431 20.4545C17.5431 20 17.5431 19.3182 17.5431 18.8636C17.5431 17.7273 17.7709 16.3636 17.7709 15.2273C17.7709 13.8636 17.5431 12.2727 17.3153 10.9091C17.3153 10.6818 17.0874 10.2273 16.8596 10C15.9483 9.09091 14.8091 8.86364 13.67 8.86364H9.1133Z" fill="#727272"/>
<path d="M59.6921 34.5455C56.7303 34.5455 54.2241 34.5455 53.3128 34.5455H52.4015C51.9458 34.5455 51.718 34.5455 51.4901 34.3182C50.5788 34.0909 50.1232 32.9545 49.2118 32.0455C48.984 31.8182 48.5283 31.1364 48.3005 30.6818C48.3005 30.4545 48.0727 30.2273 48.0727 30L43.516 21.3636H43.0603C41.6933 21.3636 40.0985 21.1364 40.0985 21.1364V34.0909C40.0985 34.5455 39.8707 34.5455 38.9594 34.5455H38.5037C37.8202 34.5455 36.681 34.5455 35.0862 34.5455H33.4914L31.2131 32.2727V1.81818C31.2131 1.59091 31.2131 1.59091 31.2131 1.59091V1.13636C31.2131 0.681818 31.4409 0.227273 32.3522 0.227273H40.5542C41.2377 0.227273 41.9212 0.227273 42.6047 0.227273C46.0222 0.227273 49.8953 0.681818 52.6293 2.95455C53.085 3.40909 53.5406 3.86364 53.9963 4.54545L54.9076 5.22727C56.9581 7.04545 57.8695 9.31818 57.8695 11.8182C57.8695 15.4545 55.819 19.0909 51.9458 20.6818L59.6921 34.5455ZM49.2118 18.4091C53.085 16.8182 55.1355 13.1818 55.1355 9.77273C55.1355 7.5 54.2241 5.22727 52.4015 3.63636C49.6675 1.36364 46.25 0.909091 42.6047 0.909091C41.2377 0.909091 39.8707 0.909091 38.2759 0.909091H32.1244C31.6687 0.909091 31.4409 1.13636 31.4409 1.36364C31.4409 1.59091 31.4409 1.59091 31.4409 1.81818V31.8182C31.4409 31.8182 31.8965 31.8182 32.58 31.8182C34.8584 31.8182 36.2254 31.8182 36.9089 31.8182C37.3645 31.8182 37.5924 31.8182 37.5924 31.8182V19.3182C37.5924 19.3182 39.415 19.0909 41.0098 19.0909C41.9212 19.0909 42.8325 19.0909 43.0603 19.3182L48.7562 30.2273C48.984 30.6818 49.2118 31.8182 49.6675 32.0455C49.6675 32.0455 49.8953 32.0455 50.351 32.0455C51.0345 32.0455 52.6293 32.0455 56.9581 32.0455L49.2118 18.4091ZM37.8202 5.90909C39.415 5.90909 41.0098 5.90909 42.8325 5.90909C43.7438 5.90909 44.883 5.90909 45.7943 6.13636C48.0727 6.36364 49.4397 7.95455 49.4397 9.77273C49.4397 10.2273 49.4397 10.6818 49.2118 10.9091C48.5283 12.9545 46.4778 13.8636 44.4273 13.8636H40.0985C39.6429 13.8636 39.1872 13.8636 38.7315 13.8636C38.2759 13.8636 37.8202 13.8636 37.8202 13.4091V5.90909ZM44.4273 13.4091C46.4778 13.4091 48.3005 12.5 48.7562 10.6818C48.984 10.2273 48.984 9.77273 48.984 9.54545C48.984 9.31818 48.984 8.86364 48.7562 8.63636C48.5283 8.63636 48.3005 8.40909 47.8448 8.40909C46.9335 8.40909 45.7943 8.18182 44.883 8.18182C43.9717 8.18182 43.2882 8.18182 42.3768 8.18182C41.4655 8.18182 41.2377 8.18182 40.3264 8.18182V13.4091H44.4273Z" fill="#727272"/>
<path d="M79.5135 9.31818V25.9091H82.0197C82.2475 25.9091 82.2475 25.9091 82.4754 25.9091H82.7032C83.1589 25.9091 85.8928 27.5 85.8928 29.3182C85.8928 31.1364 85.8928 32.9545 85.8928 34.7727H67.2106C66.5271 34.7727 64.2488 33.6364 64.2488 31.8182V26.1364H70.4002V9.31818H67.2106C66.5271 9.31818 64.2488 8.86364 64.2488 5.90909V0.454545H71.0837C71.3116 0.454545 71.5394 0.454545 71.7672 0.454545C72.6786 0.454545 73.5899 0.454545 74.5012 0.454545H82.2475C82.4754 0.454545 82.4754 0.454545 82.7032 0.454545H82.931C83.3867 0.454545 86.1207 1.59091 86.1207 3.86364C86.1207 5.68182 86.1207 7.5 86.1207 9.31818H79.5135ZM83.1589 6.59091C83.1589 4.77273 83.1589 3.40909 83.1589 1.59091C83.1589 1.13636 82.931 0.909091 82.7032 0.909091C82.4754 0.909091 82.2475 0.909091 82.0197 0.909091H76.7795C74.9569 0.909091 73.3621 0.909091 71.5394 0.909091C71.3116 0.909091 71.0837 0.909091 70.8559 0.909091H64.4766C64.4766 0.909091 64.4766 5.22727 64.4766 5.68182C64.4766 6.36364 64.4766 6.59091 64.9323 6.59091H70.8559V26.3636C66.0714 26.3636 70.8559 26.3636 64.7044 26.3636C64.7044 26.3636 64.7044 30.6818 64.7044 31.1364C64.7044 31.8182 64.7044 32.0455 65.1601 32.0455H71.0837C76.5517 32.0455 76.5517 32.0455 76.5517 32.0455H83.3867C83.3867 30.2273 83.3867 28.8636 83.3867 27.0455C83.3867 26.5909 83.1589 26.3636 82.931 26.3636C82.7032 26.3636 82.4754 26.3636 82.2475 26.3636H77.0074V6.59091H83.1589Z" fill="#727272"/>
<path d="M98.8793 2.95455L109.36 18.1818V2.27273C109.36 2.04545 109.36 1.81818 109.36 1.81818V1.36364C109.36 0.681818 109.587 0.454545 110.727 0.454545C110.954 0.454545 112.094 0.454545 113.461 0.454545C114.828 0.454545 116.195 0.454545 116.195 0.681818C117.334 1.81818 118.473 2.95455 118.473 3.18182V33.6364C118.473 34.5455 118.245 34.5455 117.106 34.5455C116.878 34.5455 116.65 34.5455 116.195 34.5455C115.511 34.5455 114.6 34.5455 113.688 34.5455C112.777 34.5455 112.094 34.5455 111.866 34.0909C110.043 32.0455 109.815 32.0455 109.587 31.8182L99.1071 16.3636V32.5C99.1071 32.7273 99.1071 32.9545 99.1071 32.9545V33.1818C99.1071 34.0909 98.8793 34.0909 97.5123 34.0909C97.0567 34.0909 92.0443 34.0909 92.0443 33.6364C90.6773 32.5 89.766 32.0455 89.766 31.3636V1.13636C89.766 0.227273 89.9938 0.227273 91.133 0.227273C91.3608 0.227273 91.5887 0.227273 92.0443 0.227273C92.7278 0.227273 93.6392 0.227273 94.5505 0.227273C95.4618 0.227273 96.1453 0.454545 96.3732 0.681818C98.4237 2.72727 98.8793 2.72727 98.8793 2.95455ZM109.815 20.6818C105.942 15 101.841 9.09091 97.968 3.40909L96.1453 0.909091C96.1453 0.681818 95.4618 0.681818 94.7783 0.681818C93.6392 0.681818 92.0443 0.909091 91.5887 0.909091C90.9052 0.909091 90.6773 0.909091 90.6773 1.36364V31.8182C90.6773 31.8182 95.234 31.8182 95.6897 31.8182C96.601 31.8182 96.8288 31.8182 96.8288 31.3636C96.8288 31.1364 96.8288 30.9091 96.8288 30.6818V11.8182L110.271 31.5909C110.499 31.8182 110.954 31.8182 111.866 31.8182C113.005 31.8182 114.6 31.5909 115.055 31.5909C115.967 31.5909 115.967 31.5909 115.967 31.1364V0.909091C115.967 0.909091 111.41 0.909091 110.954 0.909091C110.043 0.909091 110.043 0.909091 110.043 1.36364C110.043 1.59091 110.043 1.81818 110.043 2.27273V20.6818H109.815Z" fill="#727272"/>
<path d="M149.458 1.13636C150.369 1.81818 151.736 3.18182 151.736 3.40909C151.736 3.40909 151.736 3.63636 151.509 3.63636C149.002 6.36364 146.724 9.09091 144.446 11.8182C143.762 12.2727 141.028 15 141.028 15.6818V15.9091L141.484 16.3636L152.876 34.5455H145.129C144.446 34.5455 143.762 33.4091 142.851 32.2727C141.94 32.2727 141.028 30.4545 140.573 29.5455L140.345 29.0909L135.788 21.3636L133.054 24.0909C133.054 24.3182 132.826 24.3182 132.599 24.5455C132.371 24.7727 131.915 25 131.915 25V32.9545C131.915 32.9545 131.915 32.9545 131.915 33.1818C131.915 33.4091 131.915 33.8636 131.915 34.0909C131.915 34.3182 131.687 34.7727 131.687 34.7727C131.459 35 131.232 35 130.776 35C130.548 35 129.865 35 129.637 35C129.409 35 129.409 35 129.409 35H128.953C128.498 35 127.814 35 126.903 35C125.764 35 124.852 34.7727 124.852 34.3182L122.574 32.0455V1.59091C122.574 0.681818 122.802 0.454545 123.485 0.454545H123.713C123.941 0.454545 124.169 0.454545 124.397 0.454545H124.852C125.536 0.454545 126.219 0.454545 127.131 0.454545C128.27 0.454545 129.409 0.681818 129.409 1.13636C130.548 2.72727 131.687 2.95455 131.687 3.40909V11.5909L140.345 1.36364C140.573 0.909091 140.8 0.681818 141.256 0.681818C148.319 0.454545 149.23 0.909091 149.458 1.13636ZM141.028 1.59091L129.409 15.2273V0.909091C129.409 0.909091 128.498 0.681818 127.586 0.681818C126.447 0.681818 125.08 0.681818 124.852 0.681818C124.397 0.681818 124.169 0.681818 123.941 0.681818C123.485 0.681818 123.485 0.909091 123.485 1.36364V31.3636C123.485 31.3636 124.169 31.5909 125.08 31.5909C125.991 31.5909 127.358 31.5909 127.586 31.5909C127.814 31.5909 128.498 31.5909 128.953 31.5909C129.181 31.5909 129.409 31.5909 129.637 31.5909C129.637 31.5909 129.637 31.3636 129.637 31.1364C129.637 30.6818 129.637 30.2273 129.637 30V22.5C129.637 22.2727 130.548 21.5909 130.776 21.3636L134.193 17.7273L140.8 28.8636C141.028 29.3182 142.167 32.0455 142.851 32.0455H149.686L138.75 14.5455C138.75 13.8636 138.294 13.6364 138.294 13.4091C138.294 13.1818 138.294 13.1818 138.522 12.9545L141.712 9.31818C143.99 6.59091 146.496 3.86364 148.775 1.13636C148.775 1.13636 148.775 1.13636 141.712 1.13636C141.484 0.909091 141.256 1.36364 141.028 1.59091Z" fill="#727272"/>
<path d="M181.127 17.5C183.405 19.3182 185 21.8182 185 24.7727V25.4545C184.772 30.6818 180.899 33.6364 175.431 34.5455C174.52 34.5455 173.608 34.7727 172.697 34.7727C168.14 34.7727 163.812 33.4091 160.394 30.6818L159.938 30.4545C159.027 29.5455 158.799 29.3182 158.116 28.4091L157.66 28.1818C157.432 27.9545 157.204 27.7273 157.204 27.5C157.204 27.2727 157.204 27.0455 157.432 26.8182C157.888 26.3636 158.344 25.6818 158.799 25.2273L161.533 22.5C164.267 24.5455 167.457 25.9091 170.647 25.9091C170.874 25.9091 171.33 25.9091 171.558 25.9091H172.014C173.381 25.6818 174.975 25.2273 175.431 24.0909C175.659 23.6364 175.887 23.1818 175.887 22.7273C175.887 22.5 175.887 22.5 175.887 22.2727C174.975 22.0455 173.836 21.8182 172.925 21.8182C172.697 21.8182 172.241 21.8182 171.786 21.8182C169.963 21.5909 168.14 21.1364 166.546 20.4545C164.951 19.3182 163.812 18.1818 162.9 17.0455C160.394 15.2273 159.027 12.5 159.027 9.54545V9.31818C159.255 5.68182 161.305 2.5 164.951 1.13636C166.773 0.227273 168.596 0 170.419 0C172.241 0 173.836 0.227273 175.431 0.681818C177.254 1.13636 179.076 1.81818 180.671 2.72727C180.899 2.95455 181.127 2.95455 181.127 2.95455C181.355 2.95455 184.089 5.90909 184.089 6.13636C184.089 6.36364 183.861 6.59091 183.633 7.04545L180.671 11.3636C178.621 10.2273 175.431 8.63636 172.469 8.63636C171.102 8.63636 169.735 9.09091 168.824 10C168.596 10.4545 168.368 11.1364 168.368 11.8182C168.368 12.0455 168.368 12.2727 168.368 12.2727C169.507 12.7273 170.874 12.7273 172.241 12.9545C172.469 12.9545 172.925 12.9545 173.153 12.9545C176.57 13.4091 179.532 15 181.127 17.5ZM167.001 12.2727C166.09 11.5909 165.634 10.6818 165.634 9.54545C165.634 8.86364 165.862 7.95455 166.546 7.5C167.457 6.36364 168.824 5.90909 170.419 5.90909C173.153 5.90909 176.57 7.27273 178.393 8.63636L181.355 4.54545C181.583 4.31818 181.583 4.09091 181.583 3.86364C181.583 3.63636 181.127 3.40909 180.443 2.95455C178.849 2.04545 177.254 1.36364 175.431 0.909091C173.836 0.454545 172.241 0.227273 170.419 0.227273C168.596 0.227273 166.773 0.454545 165.179 1.13636C161.761 2.5 159.711 5.68182 159.483 9.09091V9.54545C159.483 12.7273 161.305 15.9091 164.495 17.5C166.09 18.1818 167.913 18.6364 169.735 18.8636C171.558 19.0909 173.836 19.0909 175.431 20.2273C176.115 20.9091 176.57 21.8182 176.57 22.7273C176.57 23.4091 176.342 23.8636 176.115 24.3182C175.431 25.6818 173.836 26.1364 172.241 26.3636H172.014C171.558 26.3636 171.102 26.3636 170.647 26.3636C167.229 26.3636 164.267 25.2273 161.533 23.1818L159.255 25.6818C158.799 26.1364 158.344 26.5909 157.888 27.2727C157.66 27.5 157.66 27.5 157.66 27.5C157.66 27.7273 158.116 27.7273 158.344 28.1818C161.761 30.4545 166.09 31.8182 170.647 31.8182C171.558 31.8182 172.469 31.8182 173.153 31.5909C178.393 30.9091 182.038 27.9545 182.266 22.9545V22.5C182.266 17.7273 178.393 14.0909 173.153 13.4091C171.102 13.4091 168.824 13.1818 167.001 12.2727Z" fill="#727272"/>
</g>
</svg>
