<svg width="30" height="46" viewBox="0 0 30 46" fill="none" xmlns="http://www.w3.org/2000/svg">
<path d="M15 0C6.72881 0 0 6.87549 0 15.3259V30.675C0 39.1252 6.72881 46 15 46C23.2712 46 30 39.1254 30 30.675V15.3259C30 6.87549 23.271 0 15 0ZM28.3334 30.675C28.3334 38.186 22.352 44.2963 15 44.2963C7.64799 44.2963 1.66664 38.186 1.66664 30.675V15.3259C1.66664 7.81489 7.64799 1.70368 15 1.70368C22.352 1.70368 28.3334 7.81467 28.3334 15.3259V30.675Z" fill="#727272"/>
<path d="M15 5.11104C14.5398 5.11104 14.1666 5.49209 14.1666 5.96299V13.6771C14.1666 14.148 14.5398 14.529 15 14.529C15.4602 14.529 15.8334 14.148 15.8334 13.6771V5.96299C15.8332 5.49209 15.4602 5.11104 15 5.11104Z" fill="#727272"/>
</svg>
