<svg width="18" height="24" viewBox="0 0 18 24" fill="none" xmlns="http://www.w3.org/2000/svg">
<path d="M0.840599 14.6127H10.6377C11.1015 14.6127 11.4783 14.2441 11.4783 13.7903C11.4783 13.3365 11.1015 12.9679 10.6377 12.9679H2.6377L10.7536 3.69412L9.30437 8.68549C9.18842 9.11089 9.42031 9.56465 9.88408 9.67809C10.3189 9.79153 10.7826 9.56465 10.8986 9.11089L12.8116 2.58808C12.9855 1.99252 12.7247 1.39696 12.1739 1.11336C11.6232 0.829757 10.9565 0.943197 10.5507 1.39696L0.202918 13.2798C1.93119e-05 13.5351 -0.0579517 13.847 0.0869758 14.159C0.202918 14.4142 0.492773 14.6127 0.840599 14.6127Z" fill="#FFA800"/>
<path d="M6.55074 11.2096C6.55074 11.6633 6.92755 12.032 7.39132 12.032H15.3623L7.24639 21.2774L8.69567 16.286C8.81161 15.8606 8.57972 15.4069 8.11596 15.2934C7.68117 15.18 7.2174 15.4069 7.10146 15.8606L5.18842 22.3834C5.01451 22.979 5.27538 23.5746 5.8261 23.8582C6.029 23.9716 6.2319 24 6.46378 24C6.84059 24 7.18842 23.8582 7.44929 23.5462L17.7971 11.72C18 11.4648 18.058 11.1528 17.9131 10.8409C17.7681 10.5573 17.4783 10.3588 17.1594 10.3588H7.36233C6.89856 10.3871 6.55074 10.7558 6.55074 11.2096Z" fill="#FFA800"/>
</svg>
