<svg width="23" height="24" viewBox="0 0 23 24" fill="none" xmlns="http://www.w3.org/2000/svg">
<path d="M13.5957 17.0975C12.8562 17.2454 12.2645 17.5659 11.7222 17.8371C11.3031 18.0589 10.884 18.2808 10.4403 18.3794C10.2184 18.4287 10.0212 18.6013 9.94728 18.7985C9.84867 18.9957 9.87332 19.2422 9.99658 19.4394C10.4896 20.179 12.3138 22.5702 15.6418 22.0525C16.1102 21.9785 16.7265 21.732 17.3428 21.3623C17.6879 21.165 17.7865 20.7213 17.5893 20.4008C17.3921 20.0557 16.9484 19.9571 16.6279 20.1543C16.1842 20.4255 15.7158 20.6227 15.4199 20.6474C13.645 20.9185 12.4371 20.1297 11.7468 19.3901C11.9687 19.2915 12.1659 19.1929 12.3631 19.0697C12.8562 18.8231 13.2999 18.5766 13.8669 18.478C16.0855 18.0343 16.899 18.8724 17.7372 19.7599C17.7372 19.7599 17.7372 19.7599 17.7619 19.7846L21.7801 23.8028C21.928 23.9507 22.1006 24 22.2731 24C22.4457 24 22.6429 23.926 22.7661 23.8028C23.0373 23.5316 23.0373 23.0879 22.7661 22.7921L18.7479 18.7738C17.6139 17.5659 16.3321 16.5305 13.5957 17.0975Z" fill="#6C6C6C"/>
<path d="M19.1177 17.6399C18.9204 17.9851 19.0437 18.4041 19.3642 18.6014C19.4874 18.6753 19.6107 18.7 19.7093 18.7C19.9558 18.7 20.1777 18.5767 20.3256 18.3548C20.6707 17.7385 20.9419 17.1222 21.0158 16.6539C21.5335 13.3259 19.1423 11.477 18.4028 11.0086C18.2302 10.8854 17.9837 10.8607 17.7618 10.9593C17.54 11.0579 17.392 11.2305 17.3427 11.4524C17.2441 11.8961 17.0223 12.3152 16.8004 12.7343C16.5292 13.2519 16.2088 13.8436 16.0609 14.6078C15.9622 15.1008 15.9129 15.5938 15.9129 16.0376C15.9129 16.432 16.2334 16.7525 16.6278 16.7525C17.0223 16.7525 17.3427 16.432 17.3427 16.0376C17.3427 15.6925 17.392 15.298 17.466 14.9036C17.5893 14.3613 17.8111 13.8929 18.0576 13.3998C18.1562 13.2026 18.2795 13.0054 18.3781 12.7836C19.1177 13.4738 19.9312 14.6817 19.6353 16.4567C19.586 16.7278 19.3888 17.1962 19.1177 17.6399Z" fill="#6C6C6C"/>
<path d="M11.2045 17.6153C11.6729 17.5413 12.2892 17.2948 12.9054 16.925C13.2506 16.7278 13.3492 16.2841 13.152 15.9636C12.9547 15.6185 12.511 15.5199 12.1905 15.7171C11.7468 15.9883 11.2784 16.1855 10.9826 16.2102C9.20769 16.4813 7.99976 15.6925 7.30951 14.9529C7.53138 14.8543 7.72859 14.7557 7.92581 14.6324C8.41884 14.3859 8.86257 14.1394 9.42956 14.0408C11.6482 13.5971 12.4617 14.4352 13.2999 15.3227C13.2999 15.3227 13.2999 15.3227 13.3245 15.3473L13.8176 15.8404C14.0887 16.1115 14.5325 16.1115 14.8283 15.8404C15.0994 15.5692 15.0994 15.1255 14.8283 14.8297L14.3352 14.3366C13.1766 13.1287 11.9194 12.0933 9.18304 12.6603C8.44349 12.8082 7.85185 13.1287 7.30951 13.3999C6.89044 13.6217 6.47136 13.8436 6.02763 13.9422C5.80576 13.9915 5.60855 14.1641 5.53459 14.3613C5.41134 14.5585 5.43599 14.805 5.55925 15.0022C6.00298 15.6678 7.53138 17.6893 10.2677 17.6893C10.5635 17.6893 10.884 17.6646 11.2045 17.6153Z" fill="#6C6C6C"/>
<path d="M13.9901 6.57135C13.7929 6.4481 13.5464 6.42344 13.3492 6.52205C13.1273 6.62066 12.9794 6.79322 12.9301 7.01508C12.8315 7.45881 12.6096 7.87789 12.3878 8.29697C12.1166 8.81465 11.7961 9.40629 11.6482 10.1705C11.5496 10.6882 11.5003 11.1566 11.5003 11.6003C11.5003 11.9947 11.8208 12.3152 12.2152 12.3152C12.6096 12.3152 12.9301 11.9947 12.9301 11.6003C12.9301 11.2552 12.9794 10.8607 13.0534 10.4663C13.1766 9.92398 13.3985 9.4556 13.645 8.96256C13.7436 8.76535 13.8669 8.56814 13.9655 8.34627C14.705 9.03652 15.5185 10.2445 15.2227 12.0194C15.1734 12.3152 14.9762 12.7836 14.7297 13.2273C14.5325 13.5724 14.6557 13.9915 14.9762 14.1887C15.0995 14.2627 15.2227 14.2873 15.3213 14.2873C15.5678 14.2873 15.7897 14.1641 15.9376 13.9422C16.2827 13.3259 16.5539 12.7096 16.6279 12.2412C17.1209 8.88861 14.7297 7.06439 13.9901 6.57135Z" fill="#6C6C6C"/>
<path d="M4.72112 8.22303C3.98157 8.37094 3.38993 8.69141 2.84759 8.96258C2.42852 9.18445 2.00944 9.40631 1.56571 9.50492C1.34384 9.55422 1.14663 9.72678 1.07267 9.924C0.974068 10.1212 0.99872 10.3677 1.12198 10.5649C1.56571 11.2305 3.09411 13.252 5.83045 13.252C6.12627 13.252 6.44674 13.2273 6.76721 13.178C7.23559 13.1041 7.85188 12.8575 8.46817 12.4878C8.8133 12.2906 8.9119 11.8468 8.71469 11.5264C8.51748 11.1812 8.07375 11.0826 7.75327 11.2798C7.30954 11.551 6.84116 11.7482 6.54534 11.7729C4.77042 12.044 3.56249 11.2552 2.87225 10.5156C3.09411 10.417 3.29132 10.3184 3.48854 10.1952C3.98157 9.94865 4.4253 9.70213 4.99229 9.60352C7.21094 9.15979 8.02444 9.99795 8.8626 10.8854C8.8626 10.8854 8.8626 10.8854 8.88725 10.9101L9.38028 11.4031C9.65145 11.6743 10.0952 11.6743 10.391 11.4031C10.6622 11.1319 10.6622 10.6882 10.391 10.3924L9.89797 9.89934C8.73934 8.69141 7.48211 7.65604 4.72112 8.22303Z" fill="#6C6C6C"/>
<path d="M9.55284 2.13404C9.35563 2.01078 9.10911 1.98613 8.9119 2.08474C8.69003 2.18335 8.54212 2.35591 8.49282 2.57777C8.39421 3.0215 8.17235 3.44058 7.95048 3.85966C7.67932 4.37734 7.35884 4.96898 7.21093 5.73318C7.11233 6.25087 7.06302 6.71925 7.06302 7.16298C7.06302 7.55741 7.3835 7.87788 7.77792 7.87788C8.17235 7.87788 8.49282 7.55741 8.49282 7.16298C8.49282 6.81786 8.54212 6.42343 8.61608 6.029C8.73934 5.48667 8.9612 5.01829 9.20772 4.52525C9.30633 4.32804 9.42958 4.13083 9.52819 3.90896C10.2677 4.59921 11.0812 5.80714 10.7854 7.58206C10.7361 7.87788 10.5389 8.34626 10.2924 8.78999C10.0952 9.13511 10.2184 9.55419 10.5389 9.7514C10.6622 9.82536 10.7854 9.85001 10.884 9.85001C11.1305 9.85001 11.3524 9.72675 11.5003 9.50489C11.8454 8.8886 12.1166 8.27231 12.1906 7.80392C12.6836 4.4513 10.2924 2.62708 9.55284 2.13404Z" fill="#6C6C6C"/>
<path d="M0.210348 2.89764C0.580123 4.27813 1.07316 6.15166 1.98527 7.03912C2.40435 7.4582 2.89738 7.77867 3.43972 8.02519C3.53832 8.07449 3.63693 8.07449 3.71088 8.07449C3.98205 8.07449 4.25322 7.92658 4.35183 7.65541C4.49974 7.28564 4.35183 6.89121 3.98205 6.71865C3.58763 6.54609 3.2425 6.29957 2.94668 6.0284C2.37969 5.43676 1.88666 3.71115 1.59084 2.60182C2.70017 2.89764 4.42578 3.39068 5.01742 3.98232C5.28859 4.25348 5.53511 4.62326 5.70767 5.01768C5.85558 5.38746 6.27466 5.53537 6.64443 5.38746C7.01421 5.23955 7.16212 4.82047 7.01421 4.4507C6.76769 3.90836 6.42257 3.39068 6.02814 2.99625C5.14068 2.08414 3.2425 1.5911 1.88666 1.22133C1.64014 1.14737 1.39363 1.09807 1.22107 1.02411C0.875943 0.925508 0.53082 1.02411 0.284303 1.27063C0.0377864 1.51715 -0.0608202 1.88692 0.0377864 2.20739C0.0870897 2.40461 0.136393 2.62647 0.210348 2.89764Z" fill="#6C6C6C"/>
</svg>
