<svg width="20" height="25" viewBox="0 0 20 25" fill="none" xmlns="http://www.w3.org/2000/svg">
<path d="M0.02457 10.3375C0.02457 10.3623 0.02457 10.3623 0.02457 10.3623C0.02457 10.387 0.04914 10.4366 0.04914 10.4613C0.04914 10.4861 0.0737101 10.4861 0.0737101 10.5109C0.0982801 10.5356 0.0982801 10.5604 0.12285 10.5852C0.14742 10.6347 0.17199 10.6595 0.22113 10.6843L3.31695 13.805C3.34152 13.8298 3.39066 13.8793 3.41523 13.9041C3.4398 13.9041 3.46437 13.9288 3.46437 13.9288C3.48894 13.9288 3.51351 13.9536 3.53808 13.9536C3.56265 13.9536 3.58722 13.9784 3.61179 13.9784C3.63636 13.9784 3.66093 14.0031 3.66093 14.0031C3.71007 14.0031 3.73464 14.0031 3.78378 14.0279C3.88206 14.0279 4.914 14.0279 6.5602 13.6316C6.19165 15.2911 6.16708 16.3313 6.16708 16.4304C6.16708 16.4799 6.16708 16.5295 6.19165 16.579C6.19165 16.6038 6.19165 16.6038 6.19165 16.6038C6.19165 16.6285 6.21622 16.6781 6.21622 16.7028C6.21622 16.7276 6.24079 16.7276 6.24079 16.7524C6.26536 16.7771 6.26536 16.8019 6.28993 16.8267C6.3145 16.8762 6.33907 16.901 6.38821 16.9257L9.5086 20.0712C9.53317 20.096 9.58231 20.1456 9.60688 20.1703C9.60688 20.1703 9.63145 20.1703 9.63145 20.1951C9.65602 20.2199 9.70516 20.2446 9.72973 20.2446C9.80344 20.2694 9.90172 20.2942 10 20.2942C10.0737 20.2942 11.1302 20.2942 12.7764 19.8979C12.4079 21.5573 12.3833 22.5976 12.3833 22.6966C12.3833 22.8948 12.457 23.0682 12.5799 23.192L13.7592 24.3808C14.1523 24.7771 14.6683 25 15.2088 25C15.4054 25 15.602 24.9753 15.7985 24.9257C16.5356 24.7028 17.0516 24.1332 17.2236 23.3901C17.5676 21.8545 18.3047 19.4768 19.8771 16.8267C19.8771 16.8267 19.8771 16.8267 19.8771 16.8019C19.9017 16.7771 19.9017 16.7524 19.9263 16.7276V16.7028C19.9263 16.6781 19.9509 16.6285 19.9509 16.6038V16.579C19.9509 16.5542 19.9509 16.5542 19.9509 16.5295C19.9509 16.5047 19.9509 16.5047 19.9509 16.4799V16.4552C19.9509 16.4304 19.9509 16.3808 19.9509 16.3561C19.9509 16.3561 19.9509 16.3561 19.9509 16.3313C19.9509 16.3065 19.9509 16.2818 19.9263 16.257V16.2322C19.9263 16.2075 19.9017 16.1579 19.9017 16.1332C19.8771 16.1084 19.8772 16.0836 19.8526 16.0589C19.8526 16.0589 19.8526 16.0341 19.828 16.0341C19.8034 16.0093 19.7789 15.9846 19.7543 15.9598L16.7076 12.8143C16.683 12.7895 16.6585 12.7647 16.6339 12.74C16.6339 12.74 16.6093 12.74 16.6093 12.7152C16.5848 12.6904 16.5602 12.6904 16.5356 12.6657C16.5111 12.6409 16.4619 12.6409 16.4373 12.6409H16.4128C16.3882 12.6409 16.3636 12.6161 16.3145 12.6161C16.3145 12.6161 16.3145 12.6161 16.2899 12.6161C16.2654 12.6161 16.2162 12.6161 16.1916 12.6161H16.1671C16.1425 12.6161 16.1425 12.6161 16.1179 12.6161H16.0688C16.0442 12.6161 15.9951 12.6409 15.9705 12.6409H15.9459C15.9214 12.6409 15.8968 12.6657 15.8722 12.6904C15.8722 12.6904 15.8722 12.6904 15.8477 12.6904C14.8649 13.2849 13.8575 13.805 12.8256 14.226C12.5061 14.3747 12.3342 14.7214 12.4079 15.0434C12.4079 15.0682 12.4324 15.1177 12.4324 15.1425C12.5799 15.514 12.9975 15.6626 13.3661 15.514C13.7346 15.3654 14.1032 15.192 14.4717 15.0186C13.9066 16.2075 13.4889 17.2973 13.1941 18.2632C12.1622 18.5356 11.3268 18.6843 10.7617 18.7338C10.8354 17.9908 11.0565 16.7771 11.5479 15.2168C11.9902 13.8298 12.6781 12.2199 13.7101 10.4861C13.7101 10.4861 13.7101 10.4861 13.7101 10.4613C13.7346 10.4366 13.7346 10.4118 13.7592 10.387V10.3623C13.7592 10.3375 13.7838 10.288 13.7838 10.2632V10.2384C13.7838 10.2137 13.7838 10.2137 13.7838 10.1889C13.7838 10.1641 13.7838 10.1641 13.7838 10.1394V10.1146C13.7838 10.0898 13.7838 10.0403 13.7838 10.0155C13.7838 10.0155 13.7838 10.0155 13.7838 9.99075C13.7838 9.96599 13.7838 9.94122 13.7592 9.91645V9.89168C13.7592 9.86692 13.7346 9.81738 13.7346 9.79261C13.7101 9.76784 13.7101 9.74308 13.6855 9.71831C13.6855 9.71831 13.6855 9.69354 13.6609 9.69354C13.6364 9.66877 13.6118 9.644 13.5872 9.61924L10.4914 6.5728C10.4668 6.54803 10.4423 6.52326 10.4177 6.49849C10.4177 6.49849 10.3931 6.49849 10.3931 6.47373C10.3685 6.47373 10.344 6.44896 10.3194 6.44896C10.2948 6.42419 10.2457 6.42419 10.2211 6.39942H10.1966C10.172 6.39942 10.1474 6.37466 10.0983 6.37466C10.0737 6.37466 10.0246 6.37466 10 6.37466H9.97543C9.95086 6.37466 9.95086 6.37466 9.92629 6.37466C9.90172 6.37466 9.90172 6.37466 9.87715 6.37466H9.85258C9.82801 6.37466 9.77887 6.39942 9.7543 6.39942C9.7543 6.39942 9.7543 6.39942 9.72973 6.39942C9.70516 6.39942 9.68059 6.42419 9.65602 6.44896C9.65602 6.44896 9.65602 6.44896 9.63145 6.44896C8.64865 7.04339 7.64128 7.56351 6.60934 7.98456C6.28993 8.13317 6.11794 8.47992 6.19165 8.8019C6.19165 8.82667 6.21622 8.8762 6.21622 8.90097C6.36364 9.27249 6.78133 9.4211 7.14988 9.27249C7.51843 9.12388 7.88698 8.95051 8.25553 8.77713C7.69042 9.96599 7.27273 11.0558 6.97789 12.0217C5.94595 12.2942 5.11057 12.4428 4.54545 12.4923C4.61916 11.7493 4.84029 10.5356 5.3317 8.97528C5.77396 7.61305 6.46192 5.97837 7.49386 4.24462C7.66585 3.97218 7.61671 3.60066 7.39558 3.37775L5.55283 1.52017C5.086 1.04958 4.44717 0.826667 3.78378 0.950506C3.12039 1.04958 2.57985 1.47063 2.26044 2.06506C0.02457 6.67187 0 10.0651 0 10.2137C0 10.2384 0 10.288 0.02457 10.3375ZM4.02948 2.43657C4.22604 2.41181 4.44717 2.46134 4.59459 2.60995L6.04423 4.07125C4.1769 7.31583 3.48894 10.1146 3.24324 11.774L1.42506 9.91645C1.4742 9.04958 1.79361 6.25082 3.53808 2.78332C3.63636 2.58518 3.80835 2.46134 4.02948 2.43657ZM10.1474 8.23224L12.2113 10.3127C10.3686 13.5573 9.70516 16.3561 9.43489 18.0155L7.61671 16.1827C7.69042 15.2415 8.0344 12.096 10.1474 8.23224ZM16.3636 14.4985L18.4275 16.579C16.9287 19.2044 16.2162 21.5573 15.8722 23.0929C15.7985 23.4397 15.5283 23.5387 15.43 23.5635C15.3317 23.5883 15.0369 23.6378 14.7912 23.3901L13.8329 22.4242C13.8821 21.483 14.2506 18.3623 16.3636 14.4985Z" fill="#6C6C6C"/>
</svg>
