<svg width="18" height="24" viewBox="0 0 18 24" fill="none" xmlns="http://www.w3.org/2000/svg">
<path d="M8.5 23.9999C10.7733 23.9999 12.9147 23.1314 14.5291 21.5552C17.8566 18.3062 17.8566 13.0629 14.5291 9.81393L9.15891 4.60274C8.99419 4.4419 8.73062 4.3454 8.5 4.3454C8.23643 4.3454 8.00581 4.4419 7.84109 4.60274L5.17248 7.20833C4.81008 7.56218 4.81008 8.1412 5.17248 8.52721C5.53488 8.88106 6.12791 8.88106 6.52326 8.52721L8.53295 6.56498L13.1783 11.1006C15.7481 13.6097 15.7481 17.7272 13.1783 20.2363C11.9264 21.4587 10.2791 22.1342 8.5 22.1342C6.72093 22.1342 5.07364 21.4587 3.82171 20.2363C2.56977 19.0139 1.87791 17.4055 1.87791 15.6685C1.87791 13.9314 2.56977 12.323 3.82171 11.1006C4.18411 10.7468 4.18411 10.1678 3.82171 9.78176C3.4593 9.42791 2.86628 9.42791 2.47093 9.78176C0.889535 11.3902 0 13.4489 0 15.6685C0 17.8881 0.889535 19.979 2.50388 21.5552C4.08527 23.1314 6.22674 23.9999 8.5 23.9999Z" fill="#6C6C6C"/>
<path d="M7.64339 2.28665C7.67634 2.35099 7.70929 2.38316 7.74223 2.44749C7.77518 2.51183 7.80812 2.544 7.87401 2.57616C7.90696 2.60833 7.97285 2.67267 8.0058 2.70484C8.07169 2.737 8.10463 2.76917 8.17053 2.80134C8.23642 2.83351 8.30231 2.83351 8.33525 2.86568C8.40115 2.86568 8.46704 2.89784 8.53293 2.89784C8.59882 2.89784 8.66471 2.89784 8.7306 2.86568C8.7965 2.86568 8.86239 2.83351 8.89533 2.80134C8.96122 2.76917 8.99417 2.737 9.06006 2.70484C9.12595 2.67267 9.1589 2.6405 9.19184 2.57616C9.22479 2.544 9.29068 2.47966 9.32363 2.44749C9.35657 2.38316 9.38952 2.35099 9.42246 2.28665C9.45541 2.22232 9.45541 2.15798 9.48836 2.12582C9.48836 2.06148 9.5213 1.99714 9.5213 1.93281C9.5213 1.86847 9.5213 1.80414 9.48836 1.7398C9.48836 1.67547 9.45541 1.61113 9.42246 1.57896C9.38952 1.51463 9.35657 1.48246 9.32363 1.41812C9.25774 1.35379 9.22479 1.32162 9.1589 1.25728C9.12595 1.22512 9.06006 1.16078 9.02711 1.12861C8.96122 1.09644 8.92828 1.06428 8.86239 1.03211C8.7965 0.999941 8.7306 0.999941 8.69766 0.967773C8.56588 0.999941 8.43409 0.999941 8.33525 1.03211C8.26936 1.03211 8.20347 1.06428 8.17053 1.09644C8.10463 1.12861 8.07169 1.16078 8.0058 1.19295C7.93991 1.22512 7.90696 1.25728 7.87401 1.32162C7.84107 1.35379 7.80812 1.41812 7.74223 1.45029C7.70929 1.51463 7.67634 1.54679 7.64339 1.61113C7.61045 1.61113 7.5775 1.67547 7.5775 1.7398C7.5775 1.80414 7.54456 1.86847 7.54456 1.93281C7.54456 1.99714 7.54456 2.06148 7.5775 2.12582C7.5775 2.15798 7.61045 2.22232 7.64339 2.28665Z" fill="#6C6C6C"/>
<path d="M7.51165 13.9636C7.1163 13.6098 6.52327 13.6419 6.16087 14.0279C4.57948 15.7328 4.21707 18.0811 5.33723 19.6251C5.89731 20.3972 6.75389 20.8797 7.77521 21.0405C7.97289 21.0727 8.17056 21.0727 8.36824 21.0727C9.48839 21.0727 10.6744 20.6545 11.6958 19.8503C13.8372 18.1454 14.5291 15.4112 13.2113 13.6098C12.5853 12.7412 11.531 12.1944 10.312 12.1622C9.7849 12.13 9.35661 12.5482 9.35661 13.0629C9.35661 13.5776 9.75196 13.9958 10.2791 13.9958C10.8721 14.0279 11.3992 14.2531 11.6628 14.6391C12.2888 15.5077 11.9593 17.2447 10.5097 18.4028C9.71901 19.014 8.82948 19.3035 8.03878 19.207C7.67638 19.1748 7.21514 19.014 6.88568 18.5636C6.29265 17.7272 6.58917 16.3119 7.54459 15.2503C7.93994 14.8965 7.907 14.2853 7.51165 13.9636Z" fill="#6C6C6C"/>
</svg>
