<svg width="41" height="44" viewBox="0 0 41 44" fill="none" xmlns="http://www.w3.org/2000/svg">
<path d="M37.4385 4.35361C36.7445 1.86914 34.5374 0.0402832 31.9167 0.00201416V0H5.91667C2.7002 0 0.0833333 2.69864 0.0833333 6.01562C0.0833333 8.15634 1.20052 10.1527 2.9987 11.2253C3.22591 11.3609 3.46159 11.4797 3.70345 11.5818C3.31445 13.4415 2.75553 15.1895 2.17122 17.015C1.10384 20.3497 0 23.798 0 28.0156V38.8438C0 41.6871 2.24284 44 5 44H33.1146L39.2464 38.6021C40.3607 37.6208 41 36.1914 41 34.6805V22.1719C41 13.9672 38.1546 6.18246 37.4385 4.35361ZM26.5641 3.4375C26.2028 4.21933 26 5.09348 26 6.01562C26 6.92032 26.1995 7.7995 26.5658 8.59375H20.5833V6.01562C20.5833 4.59396 21.7048 3.4375 23.0833 3.4375H26.5641ZM17.8141 3.4375C17.4528 4.21933 17.25 5.09348 17.25 6.01562V15.4688H13.9167V6.01562C13.9167 4.59396 15.0381 3.4375 16.4167 3.4375H17.8141ZM5.91667 3.4375H11.1475C10.7861 4.21933 10.5833 5.09348 10.5833 6.01562V8.59375H5.91667C5.47689 8.59375 5.04492 8.47491 4.66797 8.24966C3.89616 7.78943 3.41667 6.93341 3.41667 6.01562C3.41667 4.59396 4.53809 3.4375 5.91667 3.4375ZM3.33333 38.8438V28.0156C3.33333 24.3505 4.30632 21.3108 5.33659 18.0925C5.9528 16.1677 6.58561 14.1894 7.01823 12.0312H10.5833V18.9062H20.5833V12.0312H31.8333V8.59375C31.3936 8.59375 30.9616 8.47491 30.5846 8.24966C29.8128 7.78943 29.3333 6.93341 29.3333 6.01562C29.3333 4.59396 30.4548 3.4375 31.8333 3.4375C32.9749 3.4375 33.9398 4.23108 34.2376 5.31134L34.2188 5.3194C34.2214 5.3251 34.2402 5.37143 34.2725 5.45233C34.3119 5.63394 34.3333 5.82227 34.3333 6.01562V7.73438C34.3333 10.3823 33.6074 13.3421 32.8385 16.4758C31.9349 20.1614 31 23.9722 31 28.0156V40.5625H5C4.08105 40.5625 3.33333 39.7914 3.33333 38.8438ZM37.6667 34.6805C37.6667 35.184 37.4535 35.6607 37.082 35.9877L34.3333 38.4077V28.0156C34.3333 24.4002 35.2165 20.8002 36.0703 17.3188C36.3294 16.262 36.584 15.224 36.8109 14.2015C37.3024 16.6511 37.6667 19.4007 37.6667 22.1719V34.6805Z" fill="#FFA800"/>
</svg>
