<svg width="48" height="48" viewBox="0 0 48 48" fill="none" xmlns="http://www.w3.org/2000/svg">
<path d="M23.7907 0C10.6516 0 0 10.6514 0 23.7907C0 36.9299 10.6516 47.5814 23.7907 47.5814C36.9298 47.5814 47.5814 36.9299 47.5814 23.7907C47.5814 10.6514 36.9298 0 23.7907 0ZM32.0134 25.0518L20.118 32.4864C19.8773 32.6367 19.6036 32.7122 19.3299 32.7122C19.082 32.7122 18.8337 32.6505 18.609 32.5256C18.1363 32.2635 17.843 31.7662 17.843 31.2253V16.3561C17.843 15.8152 18.1363 15.3179 18.609 15.0558C19.0816 14.7922 19.6596 14.8082 20.118 15.095L32.0134 22.5296C32.4479 22.8019 32.7122 23.2782 32.7122 23.7907C32.7122 24.3032 32.4479 24.7796 32.0134 25.0518Z" fill="#FFA800"/>
</svg>
