<svg width="30" height="24" viewBox="0 0 30 24" fill="none" xmlns="http://www.w3.org/2000/svg">
<path d="M22.9154 2.9352C22.8742 2.49752 22.5328 2.1511 22.1016 2.1093C21.9869 2.09818 19.5283 1.87865 17.7424 3.16419C18.6718 4.16615 19.2428 5.51418 19.2428 6.99569V7.65041H21.6533C23.1669 5.8273 22.927 3.05787 22.9154 2.9352Z" fill="#FFA800"/>
<path d="M26.5069 1.9811C26.3374 1.80908 26.1075 1.7124 25.8678 1.7124C25.6281 1.7124 25.3981 1.80902 25.2287 1.9811L24.684 2.53385C24.6972 2.60853 24.7078 2.6841 24.715 2.76075C24.746 3.08778 24.9254 5.48891 23.813 7.65035H26.951C28.1742 5.93801 28.0265 3.52327 26.5069 1.9811Z" fill="#FFA800"/>
<path d="M13.7289 3.2347C13.653 3.2347 13.5776 3.23696 13.5026 3.24154C13.2526 1.41272 11.7017 0 9.83174 0C7.96178 0 6.41092 1.41272 6.1609 3.24154C6.08584 3.23696 6.01043 3.2347 5.93461 3.2347C3.89109 3.2347 2.22855 4.92183 2.22855 6.99558V7.65035H17.4349V6.99558C17.4349 4.92183 15.7724 3.2347 13.7289 3.2347Z" fill="#FFA800"/>
<path d="M0 9.48483C0.116016 11.5452 0.63334 13.5227 1.54225 15.3749C2.18853 16.6919 3.03129 17.917 4.02592 18.9974H25.9741C26.9687 17.9169 27.8114 16.6918 28.4577 15.3749C29.3667 13.5226 29.8839 11.5451 30 9.48483H0Z" fill="#FFA800"/>
<path d="M5.39484 20.832V23.0827C5.39484 23.5893 5.79955 24 6.29877 24H23.7012C24.2004 24 24.6051 23.5893 24.6051 23.0827V20.832H5.39484Z" fill="#FFA800"/>
</svg>
