<svg width="491" height="4" viewBox="0 0 491 4" fill="none" xmlns="http://www.w3.org/2000/svg">
<path d="M4 2C4 3.10457 3.10457 4 2 4C0.89543 4 0 3.10457 0 2C0 0.89543 0.89543 0 2 0C3.10457 0 4 0.89543 4 2Z" fill="#535353"/>
<path d="M85 2C85 3.10457 84.1046 4 83 4C81.8954 4 81 3.10457 81 2C81 0.89543 81.8954 0 83 0C84.1046 0 85 0.89543 85 2Z" fill="#535353"/>
<path d="M166 2C166 3.10457 165.105 4 164 4C162.895 4 162 3.10457 162 2C162 0.89543 162.895 0 164 0C165.105 0 166 0.89543 166 2Z" fill="#535353"/>
<path d="M248 2C248 3.10457 247.105 4 246 4C244.895 4 244 3.10457 244 2C244 0.89543 244.895 0 246 0C247.105 0 248 0.89543 248 2Z" fill="#535353"/>
<path d="M329 2C329 3.10457 328.105 4 327 4C325.895 4 325 3.10457 325 2C325 0.89543 325.895 0 327 0C328.105 0 329 0.89543 329 2Z" fill="#535353"/>
<path d="M410 2C410 3.10457 409.105 4 408 4C406.895 4 406 3.10457 406 2C406 0.89543 406.895 0 408 0C409.105 0 410 0.89543 410 2Z" fill="#535353"/>
<path d="M491 2C491 3.10457 490.105 4 489 4C487.895 4 487 3.10457 487 2C487 0.89543 487.895 0 489 0C490.105 0 491 0.89543 491 2Z" fill="#535353"/>
</svg>
